<?xml version="1.0" encoding="UTF-8" standalone="no"?>
<!-- Created with Inkscape (http://www.inkscape.org/) -->

<svg
   xmlns:osb="http://www.openswatchbook.org/uri/2009/osb"
   xmlns:dc="http://purl.org/dc/elements/1.1/"
   xmlns:cc="http://creativecommons.org/ns#"
   xmlns:rdf="http://www.w3.org/1999/02/22-rdf-syntax-ns#"
   xmlns:svg="http://www.w3.org/2000/svg"
   xmlns="http://www.w3.org/2000/svg"
   xmlns:sodipodi="http://sodipodi.sourceforge.net/DTD/sodipodi-0.dtd"
   xmlns:inkscape="http://www.inkscape.org/namespaces/inkscape"
   width="744.09448819"
   height="1052.3622047"
   id="svg2"
   version="1.1"
   inkscape:version="0.48.2 r9819"
   sodipodi:docname="New document 1">
  <defs
     id="defs4">
    <filter
       y="-.25"
       x="-.25"
       height="1.5"
       width="1.5"
       inkscape:label="Drop shadow"
       id="filter11672">
      <feGaussianBlur
         result="blur"
         stdDeviation="6"
         in="SourceAlpha"
         id="feGaussianBlur11674" />
      <feColorMatrix
         values="1 0 0 0 0 0 1 0 0 0 0 0 1 0 0 0 0 0 0.8 0 "
         type="matrix"
         result="bluralpha"
         id="feColorMatrix11676" />
      <feOffset
         result="offsetBlur"
         dy="8"
         dx="8"
         in="bluralpha"
         id="feOffset11678" />
      <feMerge
         id="feMerge11680">
        <feMergeNode
           in="offsetBlur"
           id="feMergeNode11682" />
        <feMergeNode
           in="SourceGraphic"
           id="feMergeNode11684" />
      </feMerge>
    </filter>
    <filter
       color-interpolation-filters="sRGB"
       x="-0.05"
       y="-0.05"
       width="1.1"
       height="1.1"
       inkscape:menu-tooltip="Metallized effect with a soft lighting, slightly translucent at the edges"
       inkscape:menu="Materials"
       inkscape:label="Metallized paint"
       id="filter10321">
      <feGaussianBlur
         result="result1"
         stdDeviation="1"
         id="feGaussianBlur10323" />
      <feComposite
         operator="in"
         result="result4"
         in="result1"
         in2="result1"
         id="feComposite10325" />
      <feBlend
         result="result5"
         mode="screen"
         in="result1"
         in2="result4"
         id="feBlend10327" />
      <feGaussianBlur
         in="result5"
         result="result6"
         stdDeviation="8"
         id="feGaussianBlur10329" />
      <feComposite
         result="result8"
         in="result6"
         operator="atop"
         in2="result5"
         id="feComposite10331" />
      <feComposite
         in="result6"
         result="fbSourceGraphic"
         operator="in"
         in2="result8"
         id="feComposite10333" />
      <feGaussianBlur
         stdDeviation="2.5"
         in="fbSourceGraphic"
         result="result0"
         id="feGaussianBlur10335" />
      <feSpecularLighting
         in="result0"
         result="result1"
         lighting-color="rgb(255,255,255)"
         surfaceScale="1"
         specularConstant="1.5"
         specularExponent="45"
         id="feSpecularLighting10337">
        <fePointLight
           x="-6000"
           y="-9000"
           z="21000"
           id="fePointLight10339" />
      </feSpecularLighting>
      <feComposite
         in="result1"
         result="result2"
         operator="in"
         in2="fbSourceGraphic"
         id="feComposite10341" />
      <feComposite
         in="fbSourceGraphic"
         result="result4"
         operator="arithmetic"
         k2="1"
         k3="1"
         in2="result2"
         id="feComposite10343" />
      <feComposite
         result="result91"
         in="result9"
         operator="in"
         in2="result4"
         id="feComposite10345" />
      <feBlend
         mode="multiply"
         in2="result91"
         id="feBlend10347" />
    </filter>
    <filter
       color-interpolation-filters="sRGB"
       x="-0.05"
       y="-0.05"
       width="1.1"
       height="1.1"
       inkscape:menu-tooltip="Metallized effect with a soft lighting, slightly translucent at the edges"
       inkscape:menu="Materials"
       inkscape:label="Metallized paint"
       id="filter10274">
      <feGaussianBlur
         result="result1"
         stdDeviation="1"
         id="feGaussianBlur10276" />
      <feComposite
         operator="in"
         result="result4"
         in="result1"
         in2="result1"
         id="feComposite10278" />
      <feBlend
         result="result5"
         mode="screen"
         in="result1"
         in2="result4"
         id="feBlend10280" />
      <feGaussianBlur
         in="result5"
         result="result6"
         stdDeviation="8"
         id="feGaussianBlur10282" />
      <feComposite
         result="result8"
         in="result6"
         operator="atop"
         in2="result5"
         id="feComposite10284" />
      <feComposite
         in="result6"
         result="fbSourceGraphic"
         operator="in"
         in2="result8"
         id="feComposite10286" />
      <feGaussianBlur
         stdDeviation="2.5"
         in="fbSourceGraphic"
         result="result0"
         id="feGaussianBlur10288" />
      <feSpecularLighting
         in="result0"
         result="result1"
         lighting-color="rgb(255,255,255)"
         surfaceScale="1"
         specularConstant="1.5"
         specularExponent="45"
         id="feSpecularLighting10290">
        <fePointLight
           x="-6000"
           y="-9000"
           z="21000"
           id="fePointLight10292" />
      </feSpecularLighting>
      <feComposite
         in="result1"
         result="result2"
         operator="in"
         in2="fbSourceGraphic"
         id="feComposite10294" />
      <feComposite
         in="fbSourceGraphic"
         result="result4"
         operator="arithmetic"
         k2="1"
         k3="1"
         in2="result2"
         id="feComposite10296" />
      <feComposite
         result="result91"
         in="result9"
         operator="in"
         in2="result4"
         id="feComposite10298" />
      <feBlend
         mode="multiply"
         in2="result91"
         id="feBlend10300" />
    </filter>
    <filter
       color-interpolation-filters="sRGB"
       inkscape:menu-tooltip="Adds a colorizable drop shadow inside"
       inkscape:menu="Shadows and Glows"
       inkscape:label="Inner Shadow"
       id="filter7327">
      <feGaussianBlur
         result="result8"
         stdDeviation="7.628285714285715"
         id="feGaussianBlur7329" />
      <feOffset
         result="result11"
         dy="4"
         dx="4"
         id="feOffset7331" />
      <feComposite
         operator="in"
         in="SourceGraphic"
         result="result6"
         in2="result11"
         id="feComposite7333" />
      <feFlood
         flood-color="rgb(0,0,0)"
         flood-opacity="1"
         in="result6"
         result="result10"
         id="feFlood7335" />
      <feBlend
         result="result12"
         in="result6"
         mode="normal"
         in2="result10"
         id="feBlend7337" />
      <feComposite
         operator="in"
         result="result2"
         in2="SourceGraphic"
         id="feComposite7339" />
    </filter>
    <linearGradient
       id="linearGradient4370">
      <stop
         style="stop-color:#8c8c8c;stop-opacity:0.49803922;"
         offset="0"
         id="stop4408" />
      <stop
         id="stop4414"
         offset="0.25"
         style="stop-color:#8c8c8c;stop-opacity:0.37254902;" />
      <stop
         id="stop4412"
         offset="0.5"
         style="stop-color:#8c8c8c;stop-opacity:0.24705882;" />
      <stop
         id="stop4374"
         offset="1"
         style="stop-color:#8c8c8c;stop-opacity:0.07142857;" />
    </linearGradient>
    <linearGradient
       osb:paint="gradient"
       id="linearGradient4390">
      <stop
         id="stop4392"
         offset="0"
         style="stop-color:#8c8c8c;stop-opacity:1;" />
      <stop
         id="stop4394"
         offset="1"
         style="stop-color:#8c8c8c;stop-opacity:0;" />
    </linearGradient>
    <linearGradient
       id="linearGradient11598">
      <stop
         id="stop11600"
         offset="0"
         style="stop-color:#ffb359;stop-opacity:1;" />
      <stop
         style="stop-color:#ffb36c;stop-opacity:0.74901961;"
         offset="0.25"
         id="stop11608" />
      <stop
         style="stop-color:#ffb380;stop-opacity:0.49803922;"
         offset="0.5"
         id="stop11606" />
      <stop
         id="stop11602"
         offset="1"
         style="stop-color:#ffb380;stop-opacity:0;" />
    </linearGradient>
    <filter
       color-interpolation-filters="sRGB"
       id="filter4144"
       inkscape:label="Drop shadow"
       width="1.5"
       height="1.5"
       x="-0.25"
       y="-0.25">
      <feGaussianBlur
         id="feGaussianBlur4146"
         in="SourceAlpha"
         stdDeviation="5"
         result="blur" />
      <feColorMatrix
         id="feColorMatrix4148"
         result="bluralpha"
         type="matrix"
         values="1 0 0 0 0 0 1 0 0 0 0 0 1 0 0 0 0 0 0.8 0 " />
      <feOffset
         id="feOffset4150"
         in="bluralpha"
         dx="0"
         dy="0"
         result="offsetBlur" />
      <feMerge
         id="feMerge4152">
        <feMergeNode
           id="feMergeNode4154"
           in="offsetBlur" />
        <feMergeNode
           id="feMergeNode4156"
           in="SourceGraphic" />
      </feMerge>
    </filter>
    <filter
       id="filter4231"
       inkscape:label="Drop shadow"
       width="1.5"
       height="1.5"
       x="-.25"
       y="-.25">
      <feGaussianBlur
         id="feGaussianBlur4233"
         in="SourceAlpha"
         stdDeviation="20"
         result="blur" />
      <feColorMatrix
         id="feColorMatrix4235"
         result="bluralpha"
         type="matrix"
         values="1 0 0 0 0 0 1 0 0 0 0 0 1 0 0 0 0 0 0.8 0 " />
      <feOffset
         id="feOffset4237"
         in="bluralpha"
         dx="0"
         dy="0"
         result="offsetBlur" />
      <feMerge
         id="feMerge4239">
        <feMergeNode
           id="feMergeNode4241"
           in="offsetBlur" />
        <feMergeNode
           id="feMergeNode4243"
           in="SourceGraphic" />
      </feMerge>
    </filter>
    <filter
       id="filter4595"
       inkscape:label="Drop shadow"
       width="1.5"
       height="1.5"
       x="-.25"
       y="-.25">
      <feGaussianBlur
         id="feGaussianBlur4597"
         in="SourceAlpha"
         stdDeviation="8"
         result="blur" />
      <feColorMatrix
         id="feColorMatrix4599"
         result="bluralpha"
         type="matrix"
         values="1 0 0 0 0 0 1 0 0 0 0 0 1 0 0 0 0 0 0.8 0 " />
      <feOffset
         id="feOffset4601"
         in="bluralpha"
         dx="5"
         dy="5"
         result="offsetBlur" />
      <feMerge
         id="feMerge4603">
        <feMergeNode
           id="feMergeNode4605"
           in="offsetBlur" />
        <feMergeNode
           id="feMergeNode4607"
           in="SourceGraphic" />
      </feMerge>
    </filter>
  </defs>
  <sodipodi:namedview
     id="base"
     pagecolor="#ffffff"
     bordercolor="#666666"
     borderopacity="1.0"
     inkscape:pageopacity="0.0"
     inkscape:pageshadow="2"
     inkscape:zoom="0.7"
     inkscape:cx="315.71429"
     inkscape:cy="467.06687"
     inkscape:document-units="px"
     inkscape:current-layer="layer1"
     showgrid="false"
     inkscape:window-width="1600"
     inkscape:window-height="838"
     inkscape:window-x="-8"
     inkscape:window-y="-8"
     inkscape:window-maximized="1" />
  <metadata
     id="metadata7">
    <rdf:RDF>
      <cc:Work
         rdf:about="">
        <dc:format>image/svg+xml</dc:format>
        <dc:type
           rdf:resource="http://purl.org/dc/dcmitype/StillImage" />
        <dc:title></dc:title>
      </cc:Work>
    </rdf:RDF>
  </metadata>
  <g
     inkscape:label="Layer 1"
     inkscape:groupmode="layer"
     id="layer1">
    <g
       id="g4543"
       style="filter:url(#filter4595)">
      <g
         transform="translate(209.73825,196.54691)"
         id="g3133">
        <rect
           style="fill:#000000;fill-opacity:1;stroke:none"
           id="rect4056"
           width="0"
           height="19.611589"
           x="236.15623"
           y="452.14899"
           rx="0"
           ry="0" />
        <g
           id="g11624"
           transform="translate(9.2449923,-58.936826)">
          <path
             sodipodi:nodetypes="cssssssssscccsssscsssssscssscsssssssssssssssssssssscssssssssccssssssssssssscsssssssssssssccsssscsccscscssscsssscsscssssscssscccsssssssscsscccccsssssssscsssscscssssssssscssssscssssssssssssssssscscccssssccsssssssscsssscccccccssssssssssscccssssssssscscsssssssssssscsssssssssssssssssssssssssscssssscsssscsscsssssssscssssscsssssccsssssssscssscsssssssssssssssssssssssssssssssssssssssssssssss"
             inkscape:connector-curvature="0"
             id="path3279"
             d="m 175.01346,708.67085 c -3.25496,-0.52295 -9.0132,-7.7408 -9.77562,-12.25357 -0.91513,-5.4166 2.31195,-12.17129 9.10315,-19.05403 4.65933,-4.72213 5.28369,-5.76999 4.04875,-6.7949 -0.80307,-0.66649 -2.70565,-4.22908 -4.22796,-7.91689 -4.21165,-10.20275 -4.17531,-10.1872 -11.57346,-4.95334 -8.54903,6.04805 -21.01264,12.74824 -23.71412,12.74824 -2.87093,0 -10.67618,-3.96614 -20.63145,-10.48361 C 85.797825,638.72185 65.948639,604.88564 60.273825,561.14514 58.748501,549.38821 58.401718,529.65048 59.62026,523.94636 l 0.640874,-3 29.990812,-0.5 29.990804,-0.5 0,-2.47683 c 0,-2.19669 -0.56551,-2.56915 -5,-3.29308 -2.75,-0.44894 -5.5625,-1.55788 -6.25,-2.4643 -0.95733,-1.26219 -1.25,-12.25031 -1.25,-46.93124 l 0,-45.28319 -3,-1.55136 c -4.20766,-2.17587 -4.25197,-4.58577 -0.28868,-15.7024 2.4961,-7.00132 2.62717,-8.4547 3.22825,-35.7976 0.61035,-27.7644 0.69814,-28.70649 3.40124,-36.5 4.29703,-12.38907 9.83184,-20.84821 20.61046,-31.5 10.88991,-10.76178 20.92596,-17.20751 36.01465,-23.13068 9.1887,-3.60709 27.48564,-8.86331 30.89356,-8.8749 0.90228,-0.003 3.25674,-0.45453 5.23212,-1.00326 3.30368,-0.91771 3.68674,-1.42282 4.77836,-6.30068 0.65271,-2.91664 2.53136,-8.14614 4.17476,-11.62112 l 2.988,-6.31813 -2.35652,-5.12562 c -4.38263,-9.53253 -9.21437,-13.73103 -17.35896,-15.0839 -5.94164,-0.98695 -11.08184,1.62195 -21.31724,10.81951 -15.21598,13.67313 -27.76324,18.02938 -33.99127,11.80136 -3.41547,-3.41547 -4.45408,-8.90846 -3.80487,-20.12314 1.18779,-20.51847 18.57857,-35.10163 41.75624,-35.01499 13.27719,0.0496 23.29303,4.19714 32.99425,13.66276 3.55846,3.47203 6.82446,6.31279 7.25779,6.31279 0.43332,0 0.79377,-1.6875 0.801,-3.75 0.0229,-6.53852 3.75443,-22.17768 6.34729,-26.60206 3.31073,-5.64932 10.67668,-12.32705 16.4639,-14.92563 6.53176,-2.93288 20.76097,-3.55654 28.78119,-1.26145 15.11765,4.3261 20.8552,14.50832 14.24002,25.27125 -2.72426,4.43237 -6.06555,6.61218 -18.05114,11.77629 -7.42804,3.20045 -11.19933,5.46419 -13.5444,8.13013 -4.80976,5.46786 -4.2697,6.90884 1.5,4.00231 18.22329,-9.18015 38.65463,-11.89873 52.74151,-7.01776 7.12786,2.46973 14.84682,10.40974 16.92584,17.41055 0.87046,2.93116 1.58014,6.7102 1.57707,8.39787 -0.0229,12.57295 -11.15942,21.20162 -22.66944,17.56438 -2.10374,-0.6648 -7.87498,-3.6094 -12.82498,-6.54356 -19.69528,-11.67455 -31.85299,-12.4027 -43.26278,-2.59109 l -3.26278,2.80576 2.90326,6.41651 c 1.5968,3.52907 3.47841,8.4415 4.18136,10.9165 0.70295,2.475 1.55568,4.83094 1.89494,5.23542 0.33927,0.40449 4.65091,1.43067 9.58142,2.28042 50.7538,8.74712 85.3213,34.64267 94.08805,70.48416 0.95044,3.88571 1.35362,13.27796 1.37367,32 0.0273,25.45118 0.12705,26.80892 2.52114,34.30545 2.56583,8.0343 2.42874,9.83378 -0.96368,12.64924 -1.35724,1.12641 -1.55378,6.19394 -1.54814,39.91775 l 0.006,38.62756 3.95346,-4.61207 c 5.07572,-5.92131 8.45934,-7.30846 16.13051,-6.61286 5.49623,0.49838 6.10692,0.35615 6.93114,-1.61427 0.49713,-1.18844 5.0045,-27.3608 10.01639,-58.1608 14.31499,-87.97123 14.62044,-89.69635 16.89054,-95.39364 4.63636,-11.63594 12.36362,-22.49751 17.54589,-24.6628 3.43991,-1.43729 9.3809,-0.63312 12.1206,1.64063 4.34657,3.60733 9.33601,20.93748 9.37692,32.56946 0.0119,3.3845 -1.09715,12.8345 -2.46456,21 -18.62719,111.23241 -21.57134,130.83111 -19.84347,132.09456 0.94156,0.68848 2.63842,1.2543 3.7708,1.25737 15.28645,0.0414 23.6355,16.26256 13.9107,27.02675 -3.93478,4.35533 -8.8104,5.91828 -16.2362,5.20476 -2.81359,-0.27035 -5.10885,-0.3218 -5.10057,-0.11432 0.008,0.20748 0.66353,2.17723 1.4561,4.37723 0.79258,2.2 1.45641,7.15 1.47518,11 0.0411,8.4423 -2.71486,15.09427 -8.57681,20.70117 -4.74313,4.53677 -9.04561,6.39561 -16.86953,7.28832 -3.3,0.37653 -12.75,3.14821 -21,6.15928 -8.25,3.01108 -15.62591,5.68212 -16.3909,5.93564 -1.83595,0.60845 -6.1091,-2.24 -6.1091,-4.07228 0,-1.95796 -3.16979,-3.51065 -7.18426,-3.51914 -5.08814,-0.0108 -19.12669,-3.64826 -27.44535,-7.11132 -4.11068,-1.71129 -7.68724,-2.89815 -7.94791,-2.63748 -0.26067,0.26067 -0.0425,4.47486 0.48473,9.36488 1.7492,16.22251 2.19844,33.72082 1.22951,47.89093 -0.52651,7.7 -1.26894,14.78261 -1.64983,15.73914 -0.6797,1.70691 -2.04302,2.18976 -13.86092,4.90918 l -5.87359,1.35168 -3.70291,10.5 c -4.37498,12.4057 -7.38643,18.52982 -9.76686,19.86197 -1.52054,0.85094 -1.08741,1.65071 3.54885,6.55287 10.21266,10.79838 11.48263,19.11114 4.12449,26.99752 l -3.81384,4.08764 -55.32083,0.0413 c -30.42646,0.0227 -56.32401,-0.11985 -57.55012,-0.31684 z m 50.51196,-22.58266 c 0.19639,-8.23847 -0.09,-12.30728 -0.93838,-13.32945 -0.9771,-1.17733 -3.5309,-1.40545 -12.78267,-1.14183 l -11.56162,0.32945 -8.15555,5.2857 c -13.14433,8.51899 -18.95067,16.20808 -15.12686,20.03189 0.90355,0.90355 7.2868,1.14857 24.75,0.95 l 23.53241,-0.26759 z m 59.01733,11.15817 c 4.42729,-4.42729 -5.82263,-15.68225 -21.57813,-23.69392 -3.71106,-1.88708 -5.63302,-2.13769 -14.5,-1.89075 l -10.22187,0.28467 -0.30159,10 c -0.16588,5.5 -0.033,11.4625 0.29531,13.25 l 0.59691,3.25 22.25468,0 c 15.97587,0 22.59325,-0.33856 23.45469,-1.2 z m -4.77388,-39.05 c 2.50367,-4.07512 5.5555,-13.50171 4.6608,-14.39641 -0.36887,-0.36887 -12.93682,1.64298 -27.92879,4.47077 l -27.25813,5.14144 -22.81466,-4.4829 c -23.59618,-4.63646 -27.68534,-5.15636 -27.68534,-3.51992 0,1.49371 3.96631,11.27385 5.59129,13.78702 l 1.45482,2.25 45.99164,0 45.99165,0 z m -132.94641,-3.04189 c 37.12771,-21.15813 58.39391,-59.47487 60.61809,-109.21966 0.50291,-11.24786 0.36184,-13.19406 -1.04072,-14.35809 -1.33404,-1.10715 -13.52198,-1.28288 -68.5565,-0.98845 -36.81371,0.19695 -67.308983,0.73804 -67.76729,1.20242 -1.400796,1.41935 -0.378567,23.19205 1.644444,35.0254 6.908773,40.41198 28.24094,71.94921 60.389336,89.27888 3.37311,1.81828 6.36883,3.31619 6.65714,3.32868 0.28832,0.0125 3.9133,-1.90864 8.0555,-4.26918 z m 76.42029,-77.29144 0,-62.91667 -24.5,0 -24.5,0 0,2.5 0,2.5 20.64413,0.26997 c 15.86608,0.20748 20.90381,0.58287 21.76615,1.62193 0.72578,0.87451 1.13254,7.136 1.15177,17.73003 0.0591,32.55115 -7.8993,61.6184 -23.25055,84.92053 -3.29886,5.00744 -5.70074,9.40889 -5.33751,9.78099 0.79587,0.81531 31.60213,7.12397 33.02601,6.76323 0.65339,-0.16553 1,-22.06114 1,-63.17001 z m 48.95808,56.79069 34.95807,-6.70736 0.87575,-4 c 1.33026,-6.07596 0.0963,-48.43246 -1.74792,-60 -2.81341,-17.6463 -10.6233,-43.27587 -14.67462,-48.15741 -0.88362,-1.0647 -6.88437,-1.34259 -28.9918,-1.34259 l -27.87756,0 0,63.5 c 0,50.15607 0.26268,63.49104 1.25,63.45736 0.6875,-0.0235 16.98113,-3.06095 36.20808,-6.75 z m 105.99782,-71.19059 c 2.99282,-1.13787 3.07122,-1.65286 0.91082,-5.98348 -1.51104,-3.02894 -1.51104,-4.01003 0,-13.10845 2.50887,-15.10667 2.45473,-15.43493 -2.78772,-16.90272 -2.43155,-0.68079 -4.90655,-0.93772 -5.5,-0.57095 -1.2223,0.75543 -1.56287,36.73163 -0.35911,37.93538 0.7494,0.74941 3.39355,0.28122 7.73601,-1.36978 z m -18.67657,-16.43744 c 0.15363,-7.65637 -0.0714,-14.26566 -0.5,-14.68731 -0.87221,-0.85801 -19.43917,-5.07612 -23.19017,-5.26842 -2.10939,-0.10815 -2.55597,0.51325 -3.57147,4.9695 -1.29168,5.66818 -4.09203,10.71893 -7.95528,14.34827 -1.40933,1.32399 -2.56241,2.94357 -2.56241,3.59906 0,3.37398 25.17768,11.46129 34.5,11.08172 l 3,-0.12215 z m 42.45907,8.17067 c 1.14128,-0.88026 2.34417,-5.83265 4.06662,-16.74268 1.34528,-8.52097 2.24091,-16.02703 1.9903,-16.68012 -0.96349,-2.5108 -10.22503,-4.29388 -13.03459,-2.5095 -1.39599,0.88661 -6.75333,31.45621 -5.90167,33.67561 1.05808,2.75731 10.16207,4.35249 12.87934,2.25669 z m 16.42875,-14.08631 c 0.73158,-4.50821 -1.14903,-5.00429 -2.04215,-0.53869 -0.34375,1.71875 -0.625,3.83375 -0.625,4.7 0,2.88039 2.04126,-0.3044 2.66715,-4.16131 z m -100.28268,-3.70876 c 5.05751,-6.0105 5.96638,-17.51747 1.68933,-21.38814 -2.50599,-2.26789 -15.69144,-1.89604 -15.36101,0.43321 0.11703,0.825 1.91703,6.55421 4,12.73158 4.19832,12.45079 5.31536,13.40055 9.67168,8.22335 z M 162.63756,519.07311 c 0.62683,-0.75529 0.85879,-2.10529 0.51545,-3 -0.53908,-1.40484 -2.72402,-1.62675 -16.01725,-1.62675 l -15.39301,0 0,3 0,3 14.87756,0 c 11.39424,0 15.14439,-0.32152 16.01725,-1.37325 z m 196.92797,-1.40138 c 0.17753,-1.25105 1.52753,-3.02736 3,-3.94734 1.47247,-0.91999 2.81841,-1.7626 2.99098,-1.87246 0.52809,-0.33621 -5.26265,-8.32708 -6.06376,-8.36762 -0.4125,-0.0209 -0.75,1.53705 -0.75,3.46205 0,5.87836 -2.59463,7.5 -12,7.5 -11.7709,0 -10.69254,1.506 3.5,4.88797 6.19696,1.47669 8.94689,0.98627 9.32278,-1.6626 z m 23.17722,-1.22537 c 0,-0.55 -1.4625,-0.99311 -3.25,-0.98469 -2.46622,0.0116 -2.88826,0.24909 -1.75,0.98469 1.96549,1.2702 5,1.2702 5,0 z m 56.17126,-4.65499 c 2.31223,-2.09254 2.34827,-5.5708 0.0787,-7.59878 -1.17351,-1.04862 -11.95325,-3.23065 -32.72313,-6.6238 -28.12818,-4.59528 -31.18226,-4.92302 -33.25,-3.56819 -2.56974,1.68376 -3.12095,6.50035 -0.95008,8.30201 1.22422,1.01601 57.11499,10.89945 62.59447,11.06888 1.33169,0.0412 3.24419,-0.66987 4.25,-1.58012 z m -97.92126,-7.99672 6.75,-0.6375 0,-45.73407 0,-45.73408 -2.93964,-1.21764 c -3.88254,-1.6082 -5.06036,-0.69975 -5.06036,3.90303 0,6.68203 -2.88472,20.64885 -6.10031,29.53555 -14.33509,39.61696 -55.15123,59.81097 -112.2698,55.54612 -44.66917,-3.3353 -73.12087,-19.73625 -87.03184,-50.16942 -4.35093,-9.51858 -6.53168,-18.23288 -7.28827,-29.1241 -0.33561,-4.8311 -1.01977,-9.03694 -1.52035,-9.34632 -1.6232,-1.00319 -6.58275,1.73334 -7.18056,3.96202 -0.88944,3.31593 -0.68872,85.99415 0.21222,87.41288 0.61931,0.97523 20.80736,1.30117 93.23469,1.50527 50.84432,0.14328 99.19422,0.36744 107.44422,0.49813 8.25,0.13069 18.0375,-0.0492 21.75,-0.39987 z M 235.69884,489.31308 c 14.70787,-0.29746 24.16475,-1.14178 35.84666,-3.98278 10.28535,-2.6588 24.28532,-9.60639 31.90435,-15.83278 9.81554,-8.02141 17.90551,-20.54722 22.1397,-34.27919 2.26341,-7.34048 4.43161,-24.99132 3.50511,-28.53425 -0.46631,-1.78318 -2.46453,-2.82175 -10.2158,-5.30963 -19.72012,-6.32946 -55.29098,-14.05039 -78.45372,-17.02899 -7.94161,-1.02125 -11.57223,-1.01753 -19,0.0195 -20.5283,2.86597 -49.527,9.46964 -69.18239,15.75442 -15.03483,4.80737 -15.5046,5.15939 -15.48019,11.60006 0.08,21.11244 8.69207,41.95139 22.58428,54.64809 14.53401,13.28323 39.38595,23.27382 64.14591,22.91073 1.7875,0.0924 19.68985,0.0348 19.13983,0.0348 z m -76.90202,-59.031 c -9.11491,-6.19623 -9.92244,-19.03128 -1.68172,-26.72938 3.73986,-3.4936 11.34908,-4.05966 15.99275,-1.18972 3.98384,2.46216 7.6349,9.12415 7.6349,13.93122 0,11.9022 -12.90974,20.1306 -21.94593,13.98788 z m 125.84381,-0.10565 c -4.44689,-2.97072 -6.8953,-8.02556 -6.89259,-14.23007 0.007,-15.93301 19.84656,-21.51154 26.95437,-7.57907 7.22258,14.15743 -7.522,30.18625 -20.06178,21.80914 z m 139.19183,17.76993 c 18.92289,-114.86323 18.13166,-109.43984 16.99649,-116.5 -1.53976,-9.57656 -3.97638,-17.02063 -5.80034,-17.72055 -2.17462,-0.83448 -5.4148,3.31374 -10.32661,13.22055 l -3.96641,8 -12.1621,74.28432 c -8.4186,51.41961 -11.84204,74.60438 -11.12227,75.32415 1.14728,1.14728 14.62171,3.85027 17.79153,3.569 1.84182,-0.16343 2.52117,-3.34102 8.58971,-40.17747 z M 128.89397,397.06338 c 21.92357,-8.46704 51.22107,-16.29902 78.84878,-21.07831 8.525,-1.47473 15.90304,-3.07478 16.39565,-3.55567 0.49261,-0.48089 1.11722,-16.99215 1.38803,-36.69169 0.41779,-30.39113 0.27408,-35.99852 -0.94856,-37.01322 -1.15297,-0.95689 -3.62865,-0.24898 -12.38803,3.54231 -34.52433,14.94304 -64.95787,40.82499 -82.99049,70.57857 -7.92655,13.0787 -14.4372,28.60099 -11.99637,28.60099 0.18821,0 5.44916,-1.97234 11.69099,-4.38298 z m 24.04878,-14.81702 c -0.80763,-0.80763 -1.2,-5.3619 -1.2,-13.92857 0,-13.71038 0.73137,-15.87143 5.37143,-15.87143 4.13249,0 4.62857,1.66124 4.62857,15.5 0,14.07332 -0.46022,15.5 -5,15.5 -1.43,0 -3.14,-0.54 -3.8,-1.2 z m 22.8,-8.8 c -1.85912,-1.85912 -2,-3.33333 -2,-20.92857 0,-20.52003 0.39,-22.07143 5.54838,-22.07143 4.93539,0 5.6078,3.00197 5.26431,23.50263 -0.28681,17.11776 -0.47335,18.77965 -2.25382,20.07985 -2.63241,1.92233 -4.19261,1.78378 -6.55887,-0.58248 z m 26.65499,-6.82874 c -1.44362,-1.59518 -1.65499,-4.90675 -1.65499,-25.92857 0,-20.57561 0.2298,-24.32963 1.57143,-25.67126 2.08791,-2.08791 4.74245,-1.98707 6.77358,0.25731 1.44368,1.59524 1.65499,4.90777 1.65499,25.9433 0,23.78568 -0.0303,24.13578 -2.22251,25.67126 -2.87956,2.01692 -4.1001,1.96269 -6.1225,-0.27204 z m 146.33583,32.07874 c -0.005,-0.4125 -2.42942,-5.75779 -5.38749,-11.87843 -12.70085,-26.27973 -30.9207,-47.1554 -56.82403,-65.10698 -15.13573,-10.48939 -47.68407,-25.75982 -49.99034,-23.45355 -0.44769,0.44769 -0.69586,17.41273 -0.55147,37.70008 l 0.26251,36.88609 19.08393,3.16081 c 30.23074,5.00702 59.02432,12.21635 80.91607,20.25975 8.04176,2.95467 12.50786,3.82432 12.49082,2.43223 z m -45.75794,-19.5 c -0.55661,-0.6875 -1.33661,-6.76534 -1.73333,-13.5063 -0.61665,-10.47787 -0.48422,-12.61815 0.91262,-14.75 2.06142,-3.14612 5.92604,-3.27662 8.03113,-0.27119 1.1962,1.70782 1.5567,4.96515 1.5567,14.06574 0,6.51378 -0.46583,12.71365 -1.03518,13.77749 -1.18556,2.21524 -6.13764,2.65348 -7.73194,0.68426 z m -25.77252,-8.17015 c -1.33563,-2.03844 -1.53642,-5.36359 -1.27305,-21.08248 0.28681,-17.11776 0.47335,-18.77965 2.25382,-20.07985 2.63241,-1.92233 4.19261,-1.78378 6.55887,0.58248 1.85637,1.85637 2,3.33333 2,20.56574 0,10.88549 -0.42823,19.3659 -1.03518,20.5 -1.52689,2.85301 -6.50301,2.56871 -8.50446,-0.48589 z m -25.58792,-5.2306 c -1.45435,-1.74927 -1.56821,-5.15752 -1.12009,-33.52782 0.26153,-16.55734 0.89279,-18.82143 5.24765,-18.82143 1.02143,0 2.56429,0.70714 3.42857,1.57143 1.34075,1.34075 1.57143,5.07359 1.57143,25.42857 0,20.35498 -0.23068,24.08782 -1.57143,25.42857 -2.04737,2.04738 -5.82091,2.00776 -7.55613,-0.0793 z m 96.12756,-11.30376 c 0,-13.23442 -0.27293,-15.70641 -2.37282,-21.49155 -3.46046,-9.53348 -8.21144,-16.91041 -16.12718,-25.04103 -14.30677,-14.69512 -32.77746,-23.99205 -60,-30.20008 -15.27488,-3.48339 -48.02484,-4.40832 -63.6308,-1.79706 -22.06479,3.69198 -40.40814,10.37054 -54.84553,19.9685 -9.11376,6.05881 -20.76786,18.59129 -25.25214,27.15541 -5.80663,11.08956 -6.87103,16.19575 -6.55154,31.4292 l 0.28001,13.35062 7,-9.92407 c 8.07038,-11.44158 23.56058,-27.96147 34.46581,-36.75689 16.82977,-13.57374 39.86317,-26.53421 58.93576,-33.16207 l 10.40158,-3.61462 7.14542,1.96032 c 17.03522,4.67355 40.62535,16.35243 58.82319,29.12188 16.48252,11.56581 39.81452,36.07036 48.27967,50.70595 1.03388,1.7875 2.23276,3.25 2.66418,3.25 0.43141,0 0.78439,-6.72953 0.78439,-14.95451 z M 241.72079,261.69636 c -0.0296,-2.35962 -3.78308,-10.50625 -5.27866,-11.45696 -0.65966,-0.41933 -3.44938,-0.76241 -6.19938,-0.76241 -6.20686,0 -6.90997,0.44727 -9.42742,5.9971 -3.62579,7.99323 -3.65057,7.97227 9.42742,7.97227 10.29408,0 11.4977,-0.18351 11.47804,-1.75 z m 66.02196,-25.19911 c 0,-2.3302 -13.30895,-10.12974 -19.5,-11.42773 -2.87802,-0.60339 -2.91868,-0.56486 -1,0.94755 2.65193,2.09041 18.7878,11.42929 19.7477,11.42929 0.41377,0 0.7523,-0.4271 0.7523,-0.94911 z m -137.91119,-14.6778 c 0.77616,-0.94615 4.04819,-3.66716 7.2712,-6.04668 6.50043,-4.79923 6.6099,-5.37203 0.42353,-2.21598 -4.2957,2.1915 -14.78354,11.48693 -14.78354,13.10272 0,1.08919 5.0577,-2.36408 7.08881,-4.84006 z m 4.6559,-18.88173 c 7.46143,-3.48628 6.41054,-5.00674 -2.34215,-3.38871 -12.25615,2.26567 -21.02607,9.35456 -23.92974,19.34287 -0.88391,3.04051 -1.34187,5.95735 -1.0177,6.48187 0.32417,0.52451 5.19188,-3.65252 10.81714,-9.28229 7.70928,-7.71547 11.76543,-10.95443 16.47245,-13.15374 z m 140.25529,21.58537 c 0,-2.51399 -4.43883,-7.73518 -8.2529,-9.70751 -3.89983,-2.01668 -14.29819,-3.48094 -17.08263,-2.40552 -1.68305,0.65004 -1.83084,0.96182 -0.66447,1.40177 0.825,0.31119 4.03687,1.49465 7.13749,2.62992 3.10062,1.13526 8.27562,3.81575 11.5,5.95663 6.83366,4.53732 7.36251,4.68994 7.36251,2.12471 z m -79.1953,-30.32673 c 5.05657,-9.19845 10.58626,-15.43774 17.06067,-19.25 7.78608,-4.5846 6.7014,-5.74839 -2.74346,-2.94357 -5.97028,1.77299 -12.35319,7.01643 -15.10329,12.40708 -1.01011,1.97997 -2.32752,6.25581 -2.92759,9.50187 -1.82262,9.85946 -1.56085,9.87953 3.71367,0.28462 z m 15.30002,1.2891 c 2.24807,-1.62849 7.78378,-4.356 12.30159,-6.06113 9.60813,-3.62635 14.71605,-7.19324 12.92289,-9.02413 -1.72995,-1.76636 -12.5097,0.37586 -17.95787,3.5687 -5.49068,3.21775 -14.71676,14.47746 -11.86267,14.47746 0.27976,0 2.34799,-1.3324 4.59606,-2.9609 z"
             style="fill:#000000" />
          <path
             inkscape:connector-curvature="0"
             id="path4087"
             d="m 158.06255,528.74372 c -28.32003,0.0675 -56.64962,-0.0351 -84.957742,0.89811 -1.830858,0.12341 -4.583047,-0.066 -5.184075,2.18535 -0.453277,5.02393 -0.269502,10.10613 -0.140448,15.14919 0.579209,11.91005 2.212101,23.77149 5.446592,35.26291 6.011299,21.83641 17.318183,42.48552 33.897883,58.08367 9.02939,8.61824 19.57971,15.65279 30.89847,20.86285 1.89534,0.44689 3.49112,-1.14844 5.14806,-1.82739 11.7275,-6.18909 22.61051,-14.08248 31.68164,-23.79408 15.36215,-16.22436 25.41327,-36.97756 30.3614,-58.66277 3.15701,-13.91144 4.61697,-28.2304 4.20096,-42.49525 0.008,-2.07093 -0.95124,-4.39685 -3.16007,-4.90289 -3.88277,-0.89291 -7.93069,-0.53007 -11.88695,-0.70103 -12.10162,-0.0897 -24.20387,-0.0584 -36.30572,-0.0587 z"
             style="fill:#ffffff;fill-opacity:1;stroke:none" />
          <path
             sodipodi:nodetypes="ccccccccccc"
             inkscape:connector-curvature="0"
             id="path4093"
             d="m 154.54671,533.1374 c -25.97229,0.27022 -51.98984,-0.18946 -77.930655,1.02435 -6.07542,-0.28827 -3.964133,2.93951 -4.672229,6.63511 -0.62524,15.15641 2.508053,34.57576 7.54351,48.87626 9.235904,28.87707 30.585724,54.33504 58.893814,66.24342 6.17441,-1.54967 11.46811,-6.25438 16.95639,-9.38409 29.28052,-19.23457 45.04101,-53.57341 48.21757,-87.57722 0.34272,-7.79352 1.82941,-16.20144 -0.74431,-23.62204 -3.70751,-3.19376 -9.43548,-1.49151 -13.93241,-2.11587 -11.44331,-0.11837 -22.88788,-0.11876 -34.33168,-0.0799 z"
             style="fill:#d80000;fill-opacity:1;stroke:none;filter:url(#filter10321)" />
          <path
             inkscape:connector-curvature="0"
             id="path4199"
             d="m 177.11578,195.25835 c -8.4802,0.55236 -17.05166,3.3817 -23.5639,8.9922 -4.01033,3.53096 -7.20664,7.9869 -8.65822,13.15238 -0.72255,2.98568 -2.04008,6.18026 -1.14653,9.25589 1.07417,2.78358 4.86996,3.10168 6.82889,1.0971 7.63284,-5.97856 13.80821,-13.69261 21.76378,-19.26206 3.2623,-2.32897 7.52812,-3.42998 9.99434,-6.73512 1.80949,-2.74335 -0.4512,-6.47137 -3.71966,-6.46427 -0.49817,-0.0388 -0.99919,-0.0574 -1.4987,-0.0361 z"
             style="fill:#b80000;fill-opacity:1;stroke:none" />
          <path
             inkscape:connector-curvature="0"
             id="path4205"
             d="m 256.45659,166.86431 c -7.2577,0.79909 -14.41104,3.69478 -19.61965,8.92105 -4.32835,3.95644 -6.89292,9.42077 -8.04925,15.10359 -0.6676,3.57286 -2.00266,7.21753 -1.46546,10.87882 0.7347,3.23541 5.54404,4.09119 7.2407,1.17368 5.30564,-8.14525 9.42062,-17.61102 17.70515,-23.28003 2.94444,-2.28938 6.85592,-3.75235 8.72072,-7.16344 1.3036,-3.00967 -1.49405,-6.02904 -4.53221,-5.63367 z"
             style="fill:#b80000;fill-opacity:1;stroke:none" />
          <path
             inkscape:connector-curvature="0"
             id="path4207"
             d="m 272.65339,176.19056 c -8.54608,0.44637 -17.26183,3.7068 -23.00415,10.22005 -2.76419,3.07111 -5.97022,6.08848 -7.35807,10.07559 -0.95681,3.31017 2.55539,6.64343 5.76006,5.06489 4.65012,-2.65504 9.06462,-5.77208 14.09251,-7.71902 5.47654,-2.42671 11.57394,-4.17678 15.94469,-8.46875 2.26721,-1.94781 2.72754,-5.85782 0.18057,-7.73726 -1.53332,-1.36381 -3.65135,-1.59122 -5.61561,-1.4355 z"
             style="fill:#b80000;fill-opacity:1;stroke:none" />
          <path
             inkscape:connector-curvature="0"
             id="path4211"
             d="m 179.9597,208.62928 c -6.02507,1.7814 -10.74462,6.32341 -15.35716,10.39159 -2.11002,2.23566 -5.3004,4.23265 -5.48922,7.60184 -0.0167,3.08918 3.77315,4.97385 6.30177,3.28631 5.24253,-3.16997 9.30663,-7.93294 14.28981,-11.47443 2.076,-1.68913 5.45807,-3.59269 4.53996,-6.78617 -0.2381,-2.0306 -2.39378,-3.19037 -4.28516,-3.01914 z"
             style="fill:#b80000;fill-opacity:1;stroke:none" />
          <path
             inkscape:connector-curvature="0"
             id="path4213"
             d="m 291.65798,208.52997 c -2.86218,-0.0219 -6.87395,1.05034 -7.09048,4.45986 -0.47478,2.90155 2.63802,4.35424 4.96501,5.05037 6.35081,2.13225 12.41978,5.03517 17.95262,8.82864 2.56786,1.49775 5.71877,4.19558 8.75695,2.19152 2.99137,-1.99813 2.57973,-6.36491 0.68615,-9.02832 -3.38694,-5.50646 -9.03274,-9.69402 -15.51967,-10.59924 -3.20885,-0.61316 -6.48015,-0.97512 -9.75058,-0.90283 z"
             style="fill:#b80000;fill-opacity:1;stroke:none" />
          <path
             inkscape:connector-curvature="0"
             id="path4215"
             d="m 286.81881,221.24184 c -3.16837,0.0305 -5.06181,3.91309 -3.09045,6.37599 2.89131,2.94246 6.79032,4.68281 10.22867,6.90566 4.01535,2.18565 7.85864,4.90593 12.20042,6.36396 3.29673,0.71186 6.27955,-3.00871 4.82112,-6.08509 -1.75315,-3.77527 -5.87828,-5.56633 -9.19264,-7.75879 -4.56371,-2.50526 -9.33245,-5.10549 -14.55182,-5.81076 l -0.16251,0 -0.25279,0.009 z"
             style="fill:#b80000;fill-opacity:1;stroke:none" />
          <path
             inkscape:connector-curvature="0"
             id="path4366"
             d="m 230.12912,382.68024 c -17.77735,0.83901 -35.16452,5.34984 -52.45475,9.29701 -12.98222,3.53319 -26.36325,6.31718 -38.60481,11.90147 -5.0535,3.23024 -3.10591,10.21029 -2.95724,15.18268 1.92397,21.828 12.96024,43.38199 31.77562,55.2201 13.77042,8.83308 29.77115,14.428 46.11662,15.5287 22.83288,0.57246 46.70071,1.92127 68.23599,-7.11431 14.56254,-5.73558 28.14878,-15.19687 36.073,-29.00351 6.23426,-9.55381 9.77918,-20.6079 10.98699,-31.93249 0.35421,-5.25385 2.0876,-10.83009 0.62755,-15.96717 -3.63456,-4.207 -9.86545,-4.77361 -14.82449,-6.68095 -25.02104,-7.13889 -50.59736,-12.67281 -76.35882,-16.07138 -2.86871,-0.2706 -5.73599,-0.41531 -8.61566,-0.36015 z m 61.91617,19.17614 c 6.4441,-0.47412 12.04421,4.84496 12.74798,11.14093 1.9973,7.47351 -3.01304,16.27215 -10.70758,17.91218 -7.9373,2.03624 -15.21683,-6.2104 -14.91477,-13.84943 -0.97085,-7.6878 4.97451,-15.18069 12.87437,-15.20368 z m -126.86585,0.0361 c 8.04074,-0.96157 14.11756,7.21805 14.06611,14.66198 0.57526,9.52945 -11.11134,18.36548 -19.66366,12.72992 -7.95171,-5.28048 -9.24727,-17.78135 -2.0404,-24.21393 2.0263,-2.05598 4.80543,-3.11878 7.63795,-3.17797 z m 79.68389,60.59804 c 7.47315,0.23993 15.90136,-0.23212 22.82358,0.57781 -6.36965,11.75508 -20.36122,17.58527 -33.24117,18.21833 -13.65352,0.70422 -29.0585,-3.13865 -37.59498,-14.66118 -0.74917,-1.15949 -1.54076,-2.4003 -2.05845,-3.62938 16.64213,-0.59466 33.39095,-0.4904 50.07102,-0.50558 z"
             style="fill:#ffb380;fill-opacity:1;stroke:none" />
          <path
             transform="matrix(0.91702542,0,0,0.84627736,19.995196,72.757004)"
             inkscape:connector-curvature="0"
             id="path4061"
             d="m 192.67373,461.41942 c 4.25827,12.11411 19.85119,21.10447 38.44994,21.10447 18.59875,0 34.20747,-8.99036 38.46575,-21.10447 -0.0475,-3.1e-4 -0.0945,0 -0.1423,0 l -76.77339,0 z"
             style="fill:#ff0000;fill-opacity:1;stroke:#000000;stroke-width:4;stroke-linecap:round;stroke-linejoin:round;stroke-miterlimit:4;stroke-opacity:1;stroke-dasharray:none;filter:url(#filter7327)" />
          <path
             inkscape:connector-curvature="0"
             id="path4237"
             d="m 341.59076,406.53696 c -6.07601,1.33884 -4.74545,9.38155 -6.10309,14.07029 -2.85782,22.48775 -13.34131,45.11517 -32.87416,57.96985 -27.76603,18.70797 -63.23131,20.28328 -95.39279,15.57362 -23.09212,-3.34124 -47.14375,-12.78928 -61.33729,-32.40509 -9.6199,-12.75421 -14.42945,-28.23349 -15.61587,-43.91358 -0.0987,-4.49204 -2.02468,-11.40716 -7.92825,-9.96722 -5.29597,1.02166 -9.31654,5.99341 -7.814,11.5167 0.18527,27.59221 -0.46082,55.21688 0.66394,82.78747 1.68018,5.56212 8.86988,3.14713 13.20086,3.95843 70.13497,1.39962 140.29649,1.26772 210.4426,1.03027 4.62266,-0.15248 13.19584,0.71592 12.51277,-6.11228 -0.18724,-30.03974 0.37358,-60.21159 -0.2799,-90.16899 -0.82998,-3.55323 -6.33086,-4.23538 -9.47482,-4.33947 z"
             style="fill:#666666;fill-opacity:1;stroke:none;filter:url(#filter10274)" />
          <path
             inkscape:connector-curvature="0"
             id="path4239"
             d="m 226.27052,271.27317 c -25.486,0.0627 -51.04834,6.63778 -73.18596,19.25408 -16.74901,10.71176 -31.72041,26.69266 -36.49084,46.42431 -0.88555,9.45493 -1.34226,19.15317 -0.17875,28.60024 1.21358,4.44641 7.15062,3.11887 8.79956,-0.52327 17.03806,-22.37524 36.76064,-43.2821 61.50338,-57.25326 13.72544,-8.13149 28.39135,-14.55354 43.45961,-19.75054 26.02755,7.27808 50.64051,20.0445 71.78525,36.56739 15.33366,13.26138 29.09461,28.24425 40.64942,44.8156 3.3914,3.97247 8.85825,-0.23509 8.42686,-4.622 0.21591,-10.80896 0.9684,-22.01407 -2.34931,-32.43062 -9.30884,-25.97176 -33.70442,-43.60504 -58.96867,-52.41133 -20.29936,-7.48679 -41.98284,-9.08421 -63.45055,-8.6706 z"
             style="fill:#666666;fill-opacity:1;fill-rule:nonzero;stroke:none;filter:url(#filter10274)" />
          <path
             inkscape:connector-curvature="0"
             id="path4247"
             d="m 222.72103,296.93677 c -14.26792,3.87053 -27.12956,11.81742 -39.73015,19.36656 -29.77767,19.49927 -55.14076,47.55283 -67.36752,81.29606 -1.75095,2.7618 0.85419,6.39253 3.95807,4.622 24.65087,-9.1211 49.53306,-16.94672 75.33918,-21.89848 9.80646,-2.24212 19.94402,-3.59708 29.51132,-6.54854 2.89016,-3.58123 1.24009,-9.09297 2.04288,-13.40636 0.38316,-20.53301 1.3449,-41.20237 -0.43411,-61.66926 -0.42896,-1.4638 -1.93533,-2.01008 -3.31967,-1.76198 z m -17.18568,18.4114 c 4.41432,0.67222 2.46894,6.80825 3.06431,9.85687 0.15112,12.92908 0.0448,25.85941 0.0766,38.78907 -1.20176,1.84839 -4.4638,4.01791 -5.03058,0.68947 -2.06586,-14.05216 -1.09742,-28.44642 -0.81715,-42.61946 0.66158,-1.87808 -0.40722,-6.80911 2.70681,-6.71595 z m -26.32754,17.10907 c 4.29179,-0.71001 2.54366,5.4526 3.19199,8.01828 -0.12233,10.39226 0.79411,21.00937 -0.51072,31.28151 -1.70981,2.83805 -5.48269,1.18692 -5.72004,-1.71091 -1.25817,-11.48665 -0.67264,-23.67072 0.22982,-35.26511 0.11244,-1.68916 1.04356,-2.69241 2.80895,-2.32377 z m -22.01197,22.06304 c 3.27185,-0.56873 2.07487,4.54774 2.68128,6.51166 0.015,6.63404 0.60779,13.91669 -1.22573,20.14785 -2.2885,1.12215 -5.32043,0.0932 -4.57093,-2.88556 -0.0438,-7.70156 -1.16179,-15.80199 0.81715,-23.28877 0.57058,-0.59234 1.56873,-0.39154 2.29823,-0.48518 z"
             style="fill:#1a1a1a;fill-opacity:1;stroke:none;filter:url(#filter10274)" />
          <path
             id="path4249"
             d="m 238.15625,296.75 c -0.27579,0.0311 -0.54542,0.13278 -0.8125,0.1875 -3.68542,2.69523 -1.74613,8.41744 -2.46875,12.34375 -0.0914,21.32942 -0.73956,42.80737 -0.15625,64.03125 3.89696,2.93002 10.20164,2.08596 15.03125,3.53125 30.90409,4.80101 61.20286,12.57159 90.75,22.53125 2.94535,0.43443 8.62254,3.90353 9.84375,-0.625 -14.4646,-37.86486 -43.69081,-69.26406 -79.375,-88.15625 -10.49004,-5.31163 -21.04174,-11.19866 -32.53125,-13.84375 -0.0918,-0.008 -0.18932,-0.0104 -0.28125,0 z m 17.6875,18.6875 c 3.57184,0.22298 2.15716,5.56756 2.84375,7.9375 0.0696,13.75993 0.62786,27.74177 -0.9375,41.375 -2.198,1.1276 -6.14391,0.46106 -5.25,-2.875 -0.18605,-15.20666 -0.28943,-30.65988 0.96875,-45.71875 0.62703,-0.58338 1.5522,-0.68449 2.375,-0.71875 z m 25.46875,14.9375 c 5.48502,2.74895 3.00701,10.21212 3.6875,15.09375 -0.34747,8.43214 0.50208,17.17122 -1.15625,25.40625 -3.00991,2.45897 -6.94057,-1.26532 -5.71875,-4.71875 0.0476,-11.31638 -0.62937,-22.88707 0.6875,-34.0625 0.57321,-0.90645 1.48819,-1.48412 2.5,-1.71875 z m 25.15625,20.1875 c 4.30241,0.61077 2.79736,6.67414 3.25,9.71875 -0.23287,5.82457 0.54961,12.29434 -1.03125,17.78125 -2.235,0.91455 -5.02411,0.15116 -4.71875,-2.71875 -0.56139,-7.49892 -1.70882,-15.35001 -0.5625,-22.75 0.70879,-0.94774 1.75799,-1.9798 3.0625,-2.03125 z"
             style="fill:#1a1a1a;fill-opacity:1;stroke:none;filter:url(#filter10274)"
             inkscape:connector-curvature="0" />
          <path
             inkscape:connector-curvature="0"
             id="path4273"
             d="m 434.28005,310.94992 c -6.00257,1.26363 -8.03174,8.15775 -10.91803,12.77411 -2.78208,5.54723 -6.23938,10.92804 -6.43573,17.33247 -7.47002,46.32992 -15.53744,92.58315 -21.97357,139.06595 -0.90449,3.38243 0.68197,7.32052 4.33359,8.0352 5.58462,1.14746 11.46535,3.45769 17.1899,2.16679 4.28919,-2.10604 3.53563,-7.93745 4.8219,-11.83475 7.41634,-42.05674 14.26191,-84.228 20.85543,-126.42424 1.4297,-9.05626 2.95879,-18.44203 0.13753,-27.41728 -1.49674,-4.60153 -1.89787,-10.6311 -6.29564,-13.48157 -0.54119,-0.21039 -1.14037,-0.26718 -1.71538,-0.21668 z"
             style="fill:#d0980c;fill-opacity:1;stroke:none;filter:url(#filter10274)" />
          <path
             inkscape:connector-curvature="0"
             id="path4275"
             d="m 375.59601,490.64946 c -6.71547,-0.50802 -10.23984,10.27136 -4.69472,13.79526 10.08965,3.45469 20.89135,4.36432 31.31175,6.53742 10.72446,1.60252 21.37553,4.18635 32.1934,4.89243 5.33339,0.37136 10.61335,-4.98525 8.37828,-10.32839 -0.48539,-3.63006 -3.9486,-4.92403 -7.11431,-5.32671 -19.33804,-3.98442 -38.92988,-7.26311 -58.50347,-9.57001 -0.52346,-0.0345 -1.04729,-0.011 -1.57093,0 z"
             style="fill:#d0980c;fill-opacity:1;stroke:none;filter:url(#filter10274)" />
          <path
             inkscape:connector-curvature="0"
             id="path4277"
             d="m 396.55976,516.09125 c -5.45918,0.27505 -5.29971,6.96799 -6.4091,10.86426 -1.47905,8.5878 -3.75572,17.17144 -3.72067,25.89903 1.03922,5.24911 7.47635,5.57217 11.75486,6.19342 5.83368,0.39655 8.08974,-6.01571 8.81164,-10.72564 1.46784,-8.67237 3.62492,-17.35289 3.43075,-26.16405 -1.18167,-6.27977 -9.03112,-5.96127 -13.86748,-6.06702 z"
             style="fill:#d0980c;fill-opacity:1;stroke:none;filter:url(#filter10274)" />
          <path
             inkscape:connector-curvature="0"
             id="path4342"
             d="m 173.16138,513.5673 c -1.61182,1.6508 -0.55468,4.19662 -0.85769,6.25662 0.31409,2.64276 3.36835,1.94059 5.24544,2.01769 11.5998,0.17187 23.23598,0.2649 34.83124,0.91651 0.82529,0.26993 2.32176,-0.0808 2.78975,0.65907 1.38465,13.87473 0.83506,27.92873 -1.02634,41.71673 -2.8917,20.71127 -9.76521,41.00884 -21.33855,58.56164 -1.86186,3.24533 -4.19643,6.31419 -5.45134,9.85802 -0.0847,2.87688 3.48961,3.08363 5.57418,3.70289 9.3078,2.03052 18.60908,4.1535 28.02017,5.56919 2.04781,0.45832 3.55491,-1.46142 3.44881,-3.35854 0.72985,-18.5935 0.55982,-37.21268 0.70564,-55.82205 0.0498,-22.8145 0.0192,-45.6291 0.0347,-68.44364 -0.34508,-2.73366 -3.55007,-1.8956 -5.47115,-2.00429 -15.11942,0 -30.23883,0 -45.35825,0 -0.38219,0.12339 -0.76439,0.24678 -1.14659,0.37016 z"
             style="fill:#666666;fill-opacity:1;stroke:none;filter:url(#filter10274)" />
          <path
             inkscape:connector-curvature="0"
             id="path4344"
             d="m 130.70122,512.93532 c -1.65719,1.7404 -0.54583,4.41059 -0.86672,6.57261 -0.38458,1.87191 1.35248,3.3545 3.15991,2.89709 9.34261,-0.12767 18.73243,0.31418 28.03292,-0.72126 2.63787,-0.13688 4.45467,-2.67971 3.99954,-5.2274 -0.0166,-2.94764 -3.52593,-3.66038 -5.85904,-3.58912 -9.18623,-0.20651 -18.41772,-0.30782 -27.58674,-0.20688 -0.29329,0.0917 -0.58658,0.18331 -0.87987,0.27496 z"
             style="fill:#000000;fill-opacity:1;stroke:none;filter:url(#filter10274)" />
          <path
             inkscape:connector-curvature="0"
             id="path4346"
             d="m 233.71144,512.93532 c -1.65793,1.73371 -0.54119,4.40072 -0.86582,6.55456 0.0943,37.92666 -0.23882,75.86715 0.46491,113.7835 0.30537,2.94787 -0.32426,6.20514 1.04192,8.92029 1.69081,1.98344 4.48939,0.28618 6.60874,0.23241 22.18341,-4.0562 44.36563,-8.34325 66.47545,-12.62828 2.21478,-0.90414 1.91085,-3.79209 2.42862,-5.77812 1.172,-12.00476 0.34103,-24.08739 0.0428,-36.12117 -0.43092,-12.3711 -1.21643,-24.79922 -4.30797,-36.82875 -2.6663,-10.92745 -5.52627,-21.95611 -10.16302,-32.2568 -1.08354,-2.2532 -2.20285,-5.11031 -5.0549,-5.44428 -4.94651,-0.68091 -9.99301,-0.32503 -14.97791,-0.53378 -13.6026,-0.0866 -27.24106,-0.29121 -40.82177,-0.17392 -0.29035,0.0915 -0.58069,0.18289 -0.87104,0.27434 z"
             style="fill:#666666;fill-opacity:1;stroke:none;filter:url(#filter10274)" />
          <path
             inkscape:connector-curvature="0"
             id="path4348"
             d="m 311.11117,512.70058 c -2.63036,0.15926 -5.85277,-0.0416 -7.79144,2.05846 -1.41776,2.49763 0.50072,5.28173 0.98409,7.79143 1.97972,5.65049 3.48857,11.50793 6.25662,16.83781 1.0289,2.19643 3.94732,4.01397 6.04897,2.05845 6.1268,-4.75379 8.58891,-13.24876 7.42127,-20.729 -0.43061,-3.59233 -2.84235,-7.34671 -6.75318,-7.60184 -2.03297,-0.32659 -4.1033,-0.44419 -6.16633,-0.41531 z"
             style="fill:#000000;fill-opacity:1;stroke:none;filter:url(#filter10274)" />
          <path
             inkscape:connector-curvature="0"
             id="path4350"
             d="m 334.77437,525.34925 c -3.0511,0.11906 -3.46698,3.72336 -4.26989,5.97425 -1.27837,5.3535 -4.01273,10.35337 -7.90027,14.21306 -1.49353,1.53086 -3.68967,3.88781 -2.07651,6.12119 2.48204,2.94671 6.47589,3.96438 9.89503,5.43505 7.65059,2.65828 15.53153,5.19962 23.67223,5.69686 2.04602,-0.14127 4.43545,0.61177 6.20874,-0.52563 1.29802,-1.60132 0.60085,-3.93107 0.9146,-5.86641 0.11207,-7.75987 0.37532,-15.55248 -0.12639,-23.28402 -0.30827,-3.03823 -3.85145,-3.35778 -6.13944,-4.05244 -6.60114,-1.48844 -13.19822,-3.34201 -19.97947,-3.72094 l -0.19863,0.009 z"
             style="fill:#666666;fill-opacity:1;stroke:none;filter:url(#filter10274)" />
          <path
             inkscape:connector-curvature="0"
             id="path4352"
             d="m 371.646,524.83464 c -2.43345,-0.0598 -3.09173,2.58631 -3.15088,4.55929 -0.75292,11.08827 -0.87644,22.23822 -0.20765,33.33254 -0.0257,1.87621 0.75528,4.26583 2.97032,4.1801 3.45328,-0.12295 7.0568,-1.00841 9.92211,-2.9974 2.21476,-1.55125 0.90153,-4.34374 0.0882,-6.28884 -0.86596,-1.84841 -1.75155,-3.75098 -1.23475,-5.83618 0.63844,-7.06756 2.54416,-14.05495 2.34736,-21.18945 -0.15524,-3.42893 -3.9772,-4.57286 -6.75318,-5.21836 -1.30887,-0.26874 -2.64039,-0.54919 -3.98149,-0.5417 z"
             style="fill:#000000;fill-opacity:1;stroke:none;filter:url(#filter10274)" />
          <path
             inkscape:connector-curvature="0"
             id="path4354"
             d="m 378.80546,513.58536 c -1.89994,-0.10648 -4.56367,1.39234 -3.31339,3.55715 2.13627,1.66017 5.67433,3.02888 8.13451,1.25494 1.70568,-1.47159 0.40856,-4.51074 -1.91401,-4.57736 -0.9539,-0.20024 -1.93409,-0.26246 -2.90711,-0.23473 z"
             style="fill:#3b3b3b;fill-opacity:1;stroke:none;filter:url(#filter10274)" />
          <path
             inkscape:connector-curvature="0"
             id="path4356"
             d="m 417.23898,535.86723 c -2.49294,1.04787 -2.58211,4.28076 -3.04254,6.57262 -0.15867,1.91079 -0.78628,4.95231 1.70635,5.62464 2.63972,0.20504 3.27369,-2.96444 3.92732,-4.90238 0.47371,-2.30242 1.42064,-5.62357 -0.97506,-7.15042 -0.51104,-0.23125 -1.07275,-0.28843 -1.61607,-0.14446 z"
             style="fill:#000000;fill-opacity:1;stroke:none;filter:url(#filter10274)" />
          <path
             inkscape:connector-curvature="0"
             id="path4358"
             d="m 283.4387,641.89574 c -18.1965,2.58604 -36.22152,6.274 -54.29627,9.60612 -14.845,-2.92789 -29.6547,-6.02463 -44.59987,-8.41438 -2.31973,-0.16626 -5.6333,-1.35276 -7.17586,1.08175 -1.02128,2.48962 0.76652,5.05742 1.43198,7.42064 1.61191,3.84245 3.17751,7.83045 5.65484,11.18195 1.71906,1.28462 4.19394,0.32168 6.21927,0.62033 29.00496,0 58.00992,0 87.01488,0 2.36539,-0.51166 2.87843,-3.37612 4.16205,-5.11905 2.14801,-4.33753 4.10406,-8.97803 4.55027,-13.83138 -0.0453,-1.55831 -1.43438,-2.68756 -2.96129,-2.54598 z"
             style="fill:#000000;fill-opacity:1;stroke:none;filter:url(#filter10274)" />
          <path
             inkscape:connector-curvature="0"
             id="path4360"
             d="m 214.54365,669.74809 c -5.0838,0.16819 -10.27487,-0.2615 -15.27591,0.82157 -4.39089,2.228 -8.31075,5.31896 -12.41515,8.0394 -4.92581,3.60243 -10.06149,7.71305 -12.45785,13.50216 -1.28766,2.92038 0.21185,7.09029 3.66549,7.45738 6.29187,0.67349 12.66136,0.32605 18.98654,0.47031 9.47919,-0.0255 18.99405,0.0978 28.44177,-0.43722 2.51585,-0.60391 1.46624,-3.73841 1.74937,-5.6117 -0.005,-6.79252 0.69461,-13.66781 -0.3977,-20.40487 -0.40964,-2.94804 -3.64592,-3.79111 -6.17506,-3.74212 -2.03978,-0.10197 -4.07876,-0.11168 -6.1215,-0.0949 z"
             style="fill:#666666;fill-opacity:1;stroke:none;filter:url(#filter10274)" />
          <path
             inkscape:connector-curvature="0"
             id="path4362"
             d="m 248.73387,669.93768 c -3.6563,0.0754 -7.34862,-0.13611 -10.97843,0.28891 -2.21018,1.06595 -1.20744,3.85092 -1.51725,5.77804 0.0174,6.88234 -0.46422,13.83014 0.31648,20.68394 0.12546,1.70313 0.79005,4.10651 2.9703,3.75111 14.19304,-0.20302 28.40011,-0.006 42.57553,-0.67038 2.51594,-0.0703 5.32376,-1.70086 5.22038,-4.51623 0.13883,-5.32343 -4.12204,-9.28334 -7.69037,-12.6702 -6.10436,-5.2195 -12.90471,-9.93213 -20.51988,-12.61008 -3.44891,-0.10037 -6.92017,-0.009 -10.37676,-0.0351 z"
             style="fill:#666666;fill-opacity:1;stroke:none;filter:url(#filter10274)" />
          <path
             inkscape:connector-curvature="0"
             id="path4368"
             d="m 228.27797,248.40227 c -3.03878,-0.32279 -6.13146,1.22228 -7.27774,4.16236 -1.40393,3.15646 -3.99274,6.59669 -3.00047,10.2016 1.50473,2.14149 4.72146,1.35834 6.98379,1.80282 5.51663,0.01 11.14275,0.34974 16.58587,-0.55156 2.62482,-1.77065 0.52003,-5.32138 -0.26981,-7.54818 -1.54345,-2.6534 -2.2699,-6.73903 -5.61623,-7.67123 -2.4445,-0.37103 -4.93415,-0.422 -7.40541,-0.39581 z"
             style="fill:#000000;fill-opacity:1;stroke:none;filter:url(#filter10274)" />
        </g>
      </g>
      <g
         style="filter:url(#filter4231)"
         id="g4140"
         transform="matrix(0.164025,0,0,0.164025,284.26352,637.53144)">
        <rect
           style="fill:#fcfcfc;fill-opacity:1;fill-rule:nonzero;stroke:#000000;stroke-width:0;stroke-linecap:round;stroke-linejoin:round;stroke-miterlimit:4;stroke-opacity:1;stroke-dasharray:none;stroke-dashoffset:0;"
           id="rect4120"
           width="547.14288"
           height="127.14286"
           x="-315.64786"
           y="607.83002"
           rx="45.495487"
           ry="63.57143"
           transform="matrix(0.70710678,-0.70710678,0.70710678,0.70710678,0,0)" />
        <rect
           style="fill:#fcfcfc;fill-opacity:1;fill-rule:nonzero;stroke:#000000;stroke-width:0;stroke-linecap:round;stroke-linejoin:round;stroke-miterlimit:4;stroke-opacity:1;stroke-dasharray:none;stroke-dashoffset:0;"
           id="rect4120-4"
           width="547.14288"
           height="127.14286"
           x="-943.55817"
           y="-21.494999"
           rx="45.495487"
           ry="63.57143"
           transform="matrix(-0.70710678,-0.70710678,-0.70710678,0.70710678,0,0)" />
      </g>
    </g>
  </g>
</svg>
