<?xml version="1.0" encoding="UTF-8" standalone="no"?>
<!-- Created with Inkscape (http://www.inkscape.org/) -->

<svg
   xmlns:dc="http://purl.org/dc/elements/1.1/"
   xmlns:cc="http://creativecommons.org/ns#"
   xmlns:rdf="http://www.w3.org/1999/02/22-rdf-syntax-ns#"
   xmlns:svg="http://www.w3.org/2000/svg"
   xmlns="http://www.w3.org/2000/svg"
   xmlns:xlink="http://www.w3.org/1999/xlink"
   xmlns:sodipodi="http://sodipodi.sourceforge.net/DTD/sodipodi-0.dtd"
   xmlns:inkscape="http://www.inkscape.org/namespaces/inkscape"
   width="32px"
   height="32px"
   id="svg8578"
   version="1.1"
   inkscape:version="0.48.2 r9819"
   inkscape:export-filename="Z:\Dev\PervasiveComputing\client\img\icons\home.png"
   inkscape:export-xdpi="90"
   inkscape:export-ydpi="90"
   sodipodi:docname="icon_home.svg">
  <defs
     id="defs8580">
    <linearGradient
       id="linearGradient4527"
       spreadMethod="pad"
       gradientTransform="matrix(0,14.919922,14.919922,0,325.56592,342.2666)"
       gradientUnits="userSpaceOnUse"
       y2="0"
       x2="1"
       y1="0"
       x1="0">
      <stop
         id="stop4529"
         offset="0"
         style="stop-opacity:1;stop-color:#333333" />
      <stop
         id="stop4531"
         offset="0.836365"
         style="stop-opacity:1;stop-color:#666666" />
      <stop
         id="stop4533"
         offset="1"
         style="stop-opacity:1;stop-color:#666666" />
    </linearGradient>
    <linearGradient
       id="linearGradient4549"
       spreadMethod="pad"
       gradientTransform="matrix(0,-12.919923,12.919923,0,15.896597,11.910414)"
       gradientUnits="userSpaceOnUse"
       y2="0"
       x2="1"
       y1="0"
       x1="0">
      <stop
         id="stop4551"
         offset="0"
         style="stop-opacity:1;stop-color:#333333" />
      <stop
         id="stop4553"
         offset="0.836365"
         style="stop-opacity:1;stop-color:#666666" />
      <stop
         id="stop4555"
         offset="1"
         style="stop-opacity:1;stop-color:#666666" />
    </linearGradient>
    <linearGradient
       y2="0"
       x2="1"
       y1="0"
       x1="0"
       spreadMethod="pad"
       gradientTransform="matrix(0,-18.649902,18.649902,0,15.895384,24.286514)"
       gradientUnits="userSpaceOnUse"
       id="linearGradient8628"
       xlink:href="#linearGradient4527"
       inkscape:collect="always" />
    <linearGradient
       inkscape:collect="always"
       xlink:href="#linearGradient4527"
       id="linearGradient8661"
       gradientUnits="userSpaceOnUse"
       gradientTransform="matrix(0,-18.649902,18.649902,0,15.895384,24.286514)"
       spreadMethod="pad"
       x1="0"
       y1="0"
       x2="1"
       y2="0" />
    <linearGradient
       inkscape:collect="always"
       xlink:href="#linearGradient4549"
       id="linearGradient8663"
       gradientUnits="userSpaceOnUse"
       gradientTransform="matrix(0,-12.919923,12.919923,0,15.896597,11.910414)"
       spreadMethod="pad"
       x1="0"
       y1="0"
       x2="1"
       y2="0" />
    <linearGradient
       id="linearGradient4197"
       spreadMethod="pad"
       gradientTransform="matrix(0,22.687988,22.687988,0,218.10254,389.46777)"
       gradientUnits="userSpaceOnUse"
       y2="0"
       x2="1"
       y1="0"
       x1="0">
      <stop
         id="stop4199"
         offset="0"
         style="stop-opacity:1;stop-color:#333333" />
      <stop
         id="stop4201"
         offset="0.836365"
         style="stop-opacity:1;stop-color:#666666" />
      <stop
         id="stop4203"
         offset="1"
         style="stop-opacity:1;stop-color:#666666" />
    </linearGradient>
    <linearGradient
       y2="0"
       x2="1"
       y1="0"
       x1="0"
       spreadMethod="pad"
       gradientTransform="matrix(0,-29.999984,29.998662,0,16.000053,31.000305)"
       gradientUnits="userSpaceOnUse"
       id="linearGradient4621"
       xlink:href="#linearGradient4197"
       inkscape:collect="always" />
  </defs>
  <sodipodi:namedview
     id="base"
     pagecolor="#ffffff"
     bordercolor="#666666"
     borderopacity="1.0"
     inkscape:pageopacity="0.0"
     inkscape:pageshadow="2"
     inkscape:zoom="11.197802"
     inkscape:cx="16"
     inkscape:cy="14.481845"
     inkscape:current-layer="layer1"
     showgrid="true"
     inkscape:grid-bbox="true"
     inkscape:document-units="px"
     inkscape:window-width="1366"
     inkscape:window-height="706"
     inkscape:window-x="-8"
     inkscape:window-y="-8"
     inkscape:window-maximized="1" />
  <metadata
     id="metadata8583">
    <rdf:RDF>
      <cc:Work
         rdf:about="">
        <dc:format>image/svg+xml</dc:format>
        <dc:type
           rdf:resource="http://purl.org/dc/dcmitype/StillImage" />
        <dc:title></dc:title>
      </cc:Work>
    </rdf:RDF>
  </metadata>
  <g
     id="layer1"
     inkscape:label="Layer 1"
     inkscape:groupmode="layer">
    <path
       id="path4205"
       style="fill:url(#linearGradient4621);stroke:none"
       d="M 1,16.001322 C 1,24.284115 7.7155891,31 16.000661,31 l 0,0 C 24.284411,31 31,24.284115 31,16.001322 l 0,0 C 31,7.715885 24.284411,1 16.000661,1 l 0,0 C 7.7155891,1 1,7.715885 1,16.001322 m 3.7009123,0 c 0,-6.2425068 5.0614836,-11.3028911 11.2997487,-11.3028911 l 0,0 c 6.242232,0 11.301071,5.0603843 11.301071,11.3028911 l 0,0 c 0,6.23854 -5.058839,11.298925 -11.301071,11.298925 l 0,0 c -6.2382651,0 -11.2997487,-5.060385 -11.2997487,-11.298925 m 2.2253075,0 c 0,5.01146 4.0632022,9.076164 9.0744412,9.076164 l 0,0 c 5.012561,0 9.077086,-4.064704 9.077086,-9.076164 l 0,0 c 0,-5.014104 -4.064525,-9.0788079 -9.077086,-9.0788079 l 0,0 c -5.011239,0 -9.0744412,4.0647039 -9.0744412,9.0788079 m 3.2685442,0 c 0,-3.207863 2.599498,-5.808797 5.805897,-5.808797 l 0,0 c 3.207722,0 5.805897,2.600934 5.805897,5.808797 l 0,0 c 0,3.203897 -2.598175,5.804831 -5.805897,5.804831 l 0,0 c -3.206399,0 -5.805897,-2.600934 -5.805897,-5.804831 m 2.616686,0 c 0,1.761284 1.429327,3.189351 3.189211,3.189351 l 0,0 c 1.762528,0 3.190533,-1.428067 3.190533,-3.189351 l 0,0 c 0,-1.763928 -1.428005,-3.190673 -3.190533,-3.190673 l 0,0 c -1.759884,0 -3.189211,1.426745 -3.189211,3.190673"
       inkscape:connector-curvature="0" />
  </g>
</svg>
