<?xml version="1.0" encoding="UTF-8" standalone="no"?>
<!-- Created with Inkscape (http://www.inkscape.org/) -->

<svg
   xmlns:dc="http://purl.org/dc/elements/1.1/"
   xmlns:cc="http://creativecommons.org/ns#"
   xmlns:rdf="http://www.w3.org/1999/02/22-rdf-syntax-ns#"
   xmlns:svg="http://www.w3.org/2000/svg"
   xmlns="http://www.w3.org/2000/svg"
   xmlns:xlink="http://www.w3.org/1999/xlink"
   xmlns:sodipodi="http://sodipodi.sourceforge.net/DTD/sodipodi-0.dtd"
   xmlns:inkscape="http://www.inkscape.org/namespaces/inkscape"
   width="32px"
   height="32px"
   id="svg8578"
   version="1.1"
   inkscape:version="0.48.2 r9819"
   inkscape:export-filename="Z:\Dev\PervasiveComputing\client\img\icons\home.png"
   inkscape:export-xdpi="90"
   inkscape:export-ydpi="90"
   sodipodi:docname="New document 4">
  <defs
     id="defs8580">
    <linearGradient
       id="linearGradient4527"
       spreadMethod="pad"
       gradientTransform="matrix(0,14.919922,14.919922,0,325.56592,342.2666)"
       gradientUnits="userSpaceOnUse"
       y2="0"
       x2="1"
       y1="0"
       x1="0">
      <stop
         id="stop4529"
         offset="0"
         style="stop-opacity:1;stop-color:#333333" />
      <stop
         id="stop4531"
         offset="0.836365"
         style="stop-opacity:1;stop-color:#666666" />
      <stop
         id="stop4533"
         offset="1"
         style="stop-opacity:1;stop-color:#666666" />
    </linearGradient>
    <linearGradient
       id="linearGradient4549"
       spreadMethod="pad"
       gradientTransform="matrix(0,-12.919923,12.919923,0,15.896597,11.910414)"
       gradientUnits="userSpaceOnUse"
       y2="0"
       x2="1"
       y1="0"
       x1="0">
      <stop
         id="stop4551"
         offset="0"
         style="stop-opacity:1;stop-color:#333333" />
      <stop
         id="stop4553"
         offset="0.836365"
         style="stop-opacity:1;stop-color:#666666" />
      <stop
         id="stop4555"
         offset="1"
         style="stop-opacity:1;stop-color:#666666" />
    </linearGradient>
    <linearGradient
       y2="0"
       x2="1"
       y1="0"
       x1="0"
       spreadMethod="pad"
       gradientTransform="matrix(0,-18.649902,18.649902,0,15.895384,24.286514)"
       gradientUnits="userSpaceOnUse"
       id="linearGradient8628"
       xlink:href="#linearGradient4527"
       inkscape:collect="always" />
    <linearGradient
       inkscape:collect="always"
       xlink:href="#linearGradient4527"
       id="linearGradient8661"
       gradientUnits="userSpaceOnUse"
       gradientTransform="matrix(0,-18.649902,18.649902,0,15.895384,24.286514)"
       spreadMethod="pad"
       x1="0"
       y1="0"
       x2="1"
       y2="0" />
    <linearGradient
       inkscape:collect="always"
       xlink:href="#linearGradient4549"
       id="linearGradient8663"
       gradientUnits="userSpaceOnUse"
       gradientTransform="matrix(0,-12.919923,12.919923,0,15.896597,11.910414)"
       spreadMethod="pad"
       x1="0"
       y1="0"
       x2="1"
       y2="0" />
  </defs>
  <sodipodi:namedview
     id="base"
     pagecolor="#ffffff"
     bordercolor="#666666"
     borderopacity="1.0"
     inkscape:pageopacity="0.0"
     inkscape:pageshadow="2"
     inkscape:zoom="11.197802"
     inkscape:cx="16"
     inkscape:cy="14.481845"
     inkscape:current-layer="layer1"
     showgrid="true"
     inkscape:grid-bbox="true"
     inkscape:document-units="px"
     inkscape:window-width="1600"
     inkscape:window-height="838"
     inkscape:window-x="-8"
     inkscape:window-y="-8"
     inkscape:window-maximized="1" />
  <metadata
     id="metadata8583">
    <rdf:RDF>
      <cc:Work
         rdf:about="">
        <dc:format>image/svg+xml</dc:format>
        <dc:type
           rdf:resource="http://purl.org/dc/dcmitype/StillImage" />
        <dc:title></dc:title>
      </cc:Work>
    </rdf:RDF>
  </metadata>
  <g
     id="layer1"
     inkscape:label="Layer 1"
     inkscape:groupmode="layer">
    <g
       id="g8657"
       transform="matrix(1.0483663,0,0,1.1859205,-0.66480677,2.1972356)">
      <path
         inkscape:connector-curvature="0"
         d="m 6.5467343,12.377264 0,9.33875 c 0,1.4125 1.1575,2.57125 2.57125,2.57125 l 0,0 4.2849997,0 0,-8.77 4.985,0 0,8.77 4.285,0 c 1.41375,0 2.57,-1.15875 2.57,-2.57125 l 0,0 0,-9.33875 -9.3475,-6.7412497 -9.3487497,6.7412497 z"
         style="fill:url(#linearGradient8661);stroke:none"
         id="path4535" />
      <path
         inkscape:connector-curvature="0"
         d="m 15.900484,-1.0089857 c -0.0025,0.0025 -0.0075,0.0025 -0.01,0 l 0,0 c -0.0025,-0.0025 -0.0125,0.00375 -0.0175,0.0125 l 0,0 c -0.0062,0.01 -0.48,0.35625 -1.05375,0.76875 l 0,0 -12.6987497,9.16 c -0.57375,0.4137495 -0.705,1.2212497 -0.29,1.7924997 l 0,0 0.4825,0.67375 c 0.27875,0.38625 0.7325,0.54875 1.175,0.505 l 0,0 12.4049997,-8.9474997 0.0025,-0.0025 0.0025,0 0,0.0025 12.4075,8.9474997 c 0.4425,0.04375 0.895,-0.11875 1.17125,-0.505 l 0,0 0.48625,-0.67375 c 0.4125,-0.57125 0.2825,-1.3787502 -0.29125,-1.7924997 l 0,0 -3.4425,-2.4825 c -0.57375,-0.415 -1.0425,-1.33125 -1.0425,-2.03625 l 0,0 0,-4.08250002 c 0,-0.70500001 -0.57875,-1.28375001 -1.28375,-1.28375001 l 0,0 -1.2075,0 c -0.70625,0 -1.285,0.57875 -1.285,1.28375001 l 0,0 0,1.35750002 c 0,0.70625 -0.46875,0.945 -1.0425,0.5325 l 0,0 -3.39375,-2.44875003 c -0.57375,-0.4125 -1.05,-0.75875 -1.05375,-0.76875 l 0,0 c -0.0075,-0.0075 -0.015,-0.0125 -0.01875,-0.0125 l 0,0 c -0.0012,0 -0.0012,0 -0.0012,0"
         style="fill:url(#linearGradient8663);stroke:none"
         id="path4557" />
    </g>
  </g>
</svg>
