<?xml version="1.0" encoding="UTF-8" standalone="no"?>
<!-- Created with Inkscape (http://www.inkscape.org/) -->

<svg
   xmlns:dc="http://purl.org/dc/elements/1.1/"
   xmlns:cc="http://creativecommons.org/ns#"
   xmlns:rdf="http://www.w3.org/1999/02/22-rdf-syntax-ns#"
   xmlns:svg="http://www.w3.org/2000/svg"
   xmlns="http://www.w3.org/2000/svg"
   xmlns:xlink="http://www.w3.org/1999/xlink"
   xmlns:sodipodi="http://sodipodi.sourceforge.net/DTD/sodipodi-0.dtd"
   xmlns:inkscape="http://www.inkscape.org/namespaces/inkscape"
   width="32px"
   height="32px"
   id="svg8665"
   version="1.1"
   inkscape:version="0.48.2 r9819"
   sodipodi:docname="icon_options.svg">
  <defs
     id="defs8667">
    <linearGradient
       id="linearGradient3889"
       spreadMethod="pad"
       gradientTransform="matrix(0,23.209961,23.209961,0,217.46924,438.52246)"
       gradientUnits="userSpaceOnUse"
       y2="0"
       x2="1"
       y1="0"
       x1="0">
      <stop
         id="stop3891"
         offset="0"
         style="stop-opacity:1;stop-color:#333333" />
      <stop
         id="stop3893"
         offset="0.836365"
         style="stop-opacity:1;stop-color:#666666" />
      <stop
         id="stop3895"
         offset="1"
         style="stop-opacity:1;stop-color:#666666" />
    </linearGradient>
    <linearGradient
       y2="0"
       x2="1"
       y1="0"
       x1="0"
       spreadMethod="pad"
       gradientTransform="matrix(0,-29.99995,30.002536,0,16.00031,30.999405)"
       gradientUnits="userSpaceOnUse"
       id="linearGradient8688"
       xlink:href="#linearGradient3889"
       inkscape:collect="always" />
    <linearGradient
       id="linearGradient6001"
       spreadMethod="pad"
       gradientTransform="matrix(0,-2.3015383,2.3776497,0,15.999947,31.000772)"
       gradientUnits="userSpaceOnUse"
       y2="0"
       x2="1"
       y1="0"
       x1="0">
      <stop
         id="stop6003"
         offset="0"
         style="stop-opacity:1;stop-color:#333333" />
      <stop
         id="stop6005"
         offset="0.836365"
         style="stop-opacity:1;stop-color:#666666" />
      <stop
         id="stop6007"
         offset="1"
         style="stop-opacity:1;stop-color:#666666" />
    </linearGradient>
    <linearGradient
       id="linearGradient5979"
       spreadMethod="pad"
       gradientTransform="matrix(0,1.7890625,1.7890625,0,486.91846,243.58105)"
       gradientUnits="userSpaceOnUse"
       y2="0"
       x2="1"
       y1="0"
       x1="0">
      <stop
         id="stop5981"
         offset="0"
         style="stop-opacity:1;stop-color:#333333" />
      <stop
         id="stop5983"
         offset="0.836365"
         style="stop-opacity:1;stop-color:#666666" />
      <stop
         id="stop5985"
         offset="1"
         style="stop-opacity:1;stop-color:#666666" />
    </linearGradient>
    <linearGradient
       id="linearGradient6045"
       spreadMethod="pad"
       gradientTransform="matrix(0,-6.1231975,6.3256902,0,18.77863,12.093491)"
       gradientUnits="userSpaceOnUse"
       y2="0"
       x2="1"
       y1="0"
       x1="0">
      <stop
         id="stop6047"
         offset="0"
         style="stop-opacity:1;stop-color:#333333" />
      <stop
         id="stop6049"
         offset="0.836365"
         style="stop-opacity:1;stop-color:#666666" />
      <stop
         id="stop6051"
         offset="1"
         style="stop-opacity:1;stop-color:#666666" />
    </linearGradient>
    <linearGradient
       id="linearGradient6023"
       spreadMethod="pad"
       gradientTransform="matrix(0,-22.706335,23.457228,0,15.999947,23.706707)"
       gradientUnits="userSpaceOnUse"
       y2="0"
       x2="1"
       y1="0"
       x1="0">
      <stop
         id="stop6025"
         offset="0"
         style="stop-opacity:1;stop-color:#333333" />
      <stop
         id="stop6027"
         offset="0.836365"
         style="stop-opacity:1;stop-color:#666666" />
      <stop
         id="stop6029"
         offset="1"
         style="stop-opacity:1;stop-color:#666666" />
    </linearGradient>
    <linearGradient
       y2="0"
       x2="1"
       y1="0"
       x1="0"
       spreadMethod="pad"
       gradientTransform="matrix(0,-2.3015383,2.3776497,0,15.999947,27.337414)"
       gradientUnits="userSpaceOnUse"
       id="linearGradient8737"
       xlink:href="#linearGradient5979"
       inkscape:collect="always" />
  </defs>
  <sodipodi:namedview
     id="base"
     pagecolor="#ffffff"
     bordercolor="#666666"
     borderopacity="1.0"
     inkscape:pageopacity="0.0"
     inkscape:pageshadow="2"
     inkscape:zoom="11.197802"
     inkscape:cx="16"
     inkscape:cy="16"
     inkscape:current-layer="layer1"
     showgrid="true"
     inkscape:grid-bbox="true"
     inkscape:document-units="px"
     inkscape:window-width="1600"
     inkscape:window-height="838"
     inkscape:window-x="-8"
     inkscape:window-y="-8"
     inkscape:window-maximized="1" />
  <metadata
     id="metadata8670">
    <rdf:RDF>
      <cc:Work
         rdf:about="">
        <dc:format>image/svg+xml</dc:format>
        <dc:type
           rdf:resource="http://purl.org/dc/dcmitype/StillImage" />
        <dc:title></dc:title>
      </cc:Work>
    </rdf:RDF>
  </metadata>
  <g
     id="layer1"
     inkscape:label="Layer 1"
     inkscape:groupmode="layer">
    <path
       id="path5987"
       style="fill:url(#linearGradient8737);stroke:none"
       d="m 11.618978,25.036021 c -0.669812,0 -1.220015,0.518439 -1.220015,1.150085 l 0,0 c 0,0.631647 0.550203,1.151373 1.220015,1.151373 l 0,0 8.763373,0 c 0.669812,0 1.218686,-0.519726 1.218686,-1.151373 l 0,0 c 0,-0.631646 -0.548874,-1.150085 -1.218686,-1.150085 l 0,0 -8.763373,0 z"
       inkscape:connector-curvature="0" />
    <path
       id="path6009"
       style="fill:url(#linearGradient6001);stroke:none"
       d="m 13.140674,28.699829 c -0.669812,0 -1.217357,0.517152 -1.217357,1.150085 l 0,0 C 11.923317,30.482847 12.470862,31 13.140674,31 l 0,0 5.718652,0 c 0.669812,0 1.217357,-0.517153 1.217357,-1.150086 l 0,0 c 0,-0.632933 -0.547545,-1.150085 -1.217357,-1.150085 l 0,0 -5.718652,0 z"
       inkscape:connector-curvature="0" />
    <path
       id="path6031"
       style="fill:url(#linearGradient6023);stroke:none"
       d="m 6,10.679246 c 0,3.063036 2.2313775,5.729845 2.2313775,5.729845 l 0,0 c 0.8452388,1.00729 1.5349856,2.893225 1.5349856,4.189966 l 0,0 0,0.75 c 0,1.296741 1.0950899,2.358061 2.4347129,2.358061 l 0,0 7.407802,0 c 1.339624,0 2.436042,-1.06132 2.436042,-2.358061 l 0,0 0,-0.609777 c 0,-1.298028 0.705695,-3.171098 1.566881,-4.164237 l 0,0 c 0,0 2.388199,-2.750429 2.388199,-5.895797 l 0,0 C 26,5.3340482 21.521297,1 16.001993,1 l 0,0 C 10.478703,1 6,5.3340482 6,10.679246 m 5.315968,8.435248 0,-0.564751 c 0,-0.973842 -0.519636,-2.392796 -1.152236,-3.147942 l 0,0 c 0,0 -1.6771881,-2.005574 -1.6771881,-4.305746 l 0,0 c 0,-4.0175815 3.3650081,-7.2735849 7.5154491,-7.2735849 l 0,0 c 4.150442,0 7.514121,3.2560034 7.514121,7.2735849 l 0,0 c 0,2.364494 -1.796797,4.431818 -1.796797,4.431818 l 0,0 c -0.648548,0.743568 -1.178816,2.150944 -1.178816,3.126072 l 0,0 0,0.460549 c 0,0.975129 -0.822646,1.770155 -1.830022,1.770155 l 0,0 -5.564489,0 c -1.007376,0 -1.830022,-0.795026 -1.830022,-1.770155"
       inkscape:connector-curvature="0" />
    <path
       id="path6053"
       style="fill:url(#linearGradient6045);stroke:none"
       d="m 16.128248,7.4965696 c 2.085188,0.1479417 3.739783,1.817753 3.739783,3.8734994 l 0,0 c 0,0.248285 -0.03057,0.487564 -0.07708,0.722984 l 0,0 1.5815,0 c 0.03322,-0.236706 0.05582,-0.477272 0.05582,-0.722984 l 0,0 c 0,-2.8880792 -2.350987,-5.2500003 -5.30002,-5.3992284 l 0,0 0,1.525729 z"
       inkscape:connector-curvature="0" />
  </g>
</svg>
