<?xml version="1.0" encoding="UTF-8" standalone="no"?>
<!-- Created with Inkscape (http://www.inkscape.org/) -->

<svg
   xmlns:dc="http://purl.org/dc/elements/1.1/"
   xmlns:cc="http://creativecommons.org/ns#"
   xmlns:rdf="http://www.w3.org/1999/02/22-rdf-syntax-ns#"
   xmlns:svg="http://www.w3.org/2000/svg"
   xmlns="http://www.w3.org/2000/svg"
   xmlns:xlink="http://www.w3.org/1999/xlink"
   xmlns:sodipodi="http://sodipodi.sourceforge.net/DTD/sodipodi-0.dtd"
   xmlns:inkscape="http://www.inkscape.org/namespaces/inkscape"
   width="32px"
   height="32px"
   id="svg8665"
   version="1.1"
   inkscape:version="0.48.2 r9819"
   sodipodi:docname="icon_details.svg"
   inkscape:export-filename="Z:\Dev\PervasiveComputing\client\img\icons\details_white.png"
   inkscape:export-xdpi="90"
   inkscape:export-ydpi="90">
  <defs
     id="defs8667">
    <linearGradient
       id="linearGradient3889"
       spreadMethod="pad"
       gradientTransform="matrix(0,23.209961,23.209961,0,217.46924,438.52246)"
       gradientUnits="userSpaceOnUse"
       y2="0"
       x2="1"
       y1="0"
       x1="0">
      <stop
         id="stop3891"
         offset="0"
         style="stop-opacity:1;stop-color:#333333" />
      <stop
         id="stop3893"
         offset="0.836365"
         style="stop-opacity:1;stop-color:#666666" />
      <stop
         id="stop3895"
         offset="1"
         style="stop-opacity:1;stop-color:#666666" />
    </linearGradient>
    <linearGradient
       y2="0"
       x2="1"
       y1="0"
       x1="0"
       spreadMethod="pad"
       gradientTransform="matrix(0,-29.99995,30.002536,0,16.00031,30.999405)"
       gradientUnits="userSpaceOnUse"
       id="linearGradient8688"
       xlink:href="#linearGradient3889"
       inkscape:collect="always" />
    <linearGradient
       id="linearGradient6001"
       spreadMethod="pad"
       gradientTransform="matrix(0,-2.3015383,2.3776497,0,15.999947,31.000772)"
       gradientUnits="userSpaceOnUse"
       y2="0"
       x2="1"
       y1="0"
       x1="0">
      <stop
         id="stop6003"
         offset="0"
         style="stop-opacity:1;stop-color:#333333" />
      <stop
         id="stop6005"
         offset="0.836365"
         style="stop-opacity:1;stop-color:#666666" />
      <stop
         id="stop6007"
         offset="1"
         style="stop-opacity:1;stop-color:#666666" />
    </linearGradient>
    <linearGradient
       id="linearGradient5979"
       spreadMethod="pad"
       gradientTransform="matrix(0,1.7890625,1.7890625,0,486.91846,243.58105)"
       gradientUnits="userSpaceOnUse"
       y2="0"
       x2="1"
       y1="0"
       x1="0">
      <stop
         id="stop5981"
         offset="0"
         style="stop-opacity:1;stop-color:#333333" />
      <stop
         id="stop5983"
         offset="0.836365"
         style="stop-opacity:1;stop-color:#666666" />
      <stop
         id="stop5985"
         offset="1"
         style="stop-opacity:1;stop-color:#666666" />
    </linearGradient>
    <linearGradient
       id="linearGradient6045"
       spreadMethod="pad"
       gradientTransform="matrix(0,-6.1231975,6.3256902,0,18.77863,12.093491)"
       gradientUnits="userSpaceOnUse"
       y2="0"
       x2="1"
       y1="0"
       x1="0">
      <stop
         id="stop6047"
         offset="0"
         style="stop-opacity:1;stop-color:#333333" />
      <stop
         id="stop6049"
         offset="0.836365"
         style="stop-opacity:1;stop-color:#666666" />
      <stop
         id="stop6051"
         offset="1"
         style="stop-opacity:1;stop-color:#666666" />
    </linearGradient>
    <linearGradient
       id="linearGradient6023"
       spreadMethod="pad"
       gradientTransform="matrix(0,-22.706335,23.457228,0,15.999947,23.706707)"
       gradientUnits="userSpaceOnUse"
       y2="0"
       x2="1"
       y1="0"
       x1="0">
      <stop
         id="stop6025"
         offset="0"
         style="stop-opacity:1;stop-color:#333333" />
      <stop
         id="stop6027"
         offset="0.836365"
         style="stop-opacity:1;stop-color:#666666" />
      <stop
         id="stop6029"
         offset="1"
         style="stop-opacity:1;stop-color:#666666" />
    </linearGradient>
    <linearGradient
       y2="0"
       x2="1"
       y1="0"
       x1="0"
       spreadMethod="pad"
       gradientTransform="matrix(0,-2.3015383,2.3776497,0,15.999947,27.337414)"
       gradientUnits="userSpaceOnUse"
       id="linearGradient8737"
       xlink:href="#linearGradient5979"
       inkscape:collect="always" />
    <linearGradient
       id="linearGradient4901"
       spreadMethod="pad"
       gradientTransform="matrix(0,-3.5449219,4.2333744,0,16,23.707825)"
       gradientUnits="userSpaceOnUse"
       y2="0"
       x2="1"
       y1="0"
       x1="0">
      <stop
         id="stop4903"
         offset="0"
         style="stop-opacity:1;stop-color:#333333" />
      <stop
         id="stop4905"
         offset="0.836365"
         style="stop-opacity:1;stop-color:#666666" />
      <stop
         id="stop4907"
         offset="1"
         style="stop-opacity:1;stop-color:#666666" />
    </linearGradient>
    <linearGradient
       id="linearGradient4857"
       spreadMethod="pad"
       gradientTransform="matrix(0,-3.5461426,4.2348322,0,16,18.23785)"
       gradientUnits="userSpaceOnUse"
       y2="0"
       x2="1"
       y1="0"
       x1="0">
      <stop
         id="stop4859"
         offset="0"
         style="stop-opacity:1;stop-color:#333333" />
      <stop
         id="stop4861"
         offset="0.836365"
         style="stop-opacity:1;stop-color:#666666" />
      <stop
         id="stop4863"
         offset="1"
         style="stop-opacity:1;stop-color:#666666" />
    </linearGradient>
    <linearGradient
       id="linearGradient4879"
       spreadMethod="pad"
       gradientTransform="matrix(0,-3.5449219,4.2333744,0,16,12.767875)"
       gradientUnits="userSpaceOnUse"
       y2="0"
       x2="1"
       y1="0"
       x1="0">
      <stop
         id="stop4881"
         offset="0"
         style="stop-opacity:1;stop-color:#333333" />
      <stop
         id="stop4883"
         offset="0.836365"
         style="stop-opacity:1;stop-color:#666666" />
      <stop
         id="stop4885"
         offset="1"
         style="stop-opacity:1;stop-color:#666666" />
    </linearGradient>
    <linearGradient
       id="linearGradient4835"
       spreadMethod="pad"
       gradientTransform="matrix(0,23.5,23.5,0,378.6665,389.05176)"
       gradientUnits="userSpaceOnUse"
       y2="0"
       x2="1"
       y1="0"
       x1="0">
      <stop
         id="stop4837"
         offset="0"
         style="stop-opacity:1;stop-color:#333333" />
      <stop
         id="stop4839"
         offset="0.836365"
         style="stop-opacity:1;stop-color:#666666" />
      <stop
         id="stop4841"
         offset="1"
         style="stop-opacity:1;stop-color:#666666" />
    </linearGradient>
    <linearGradient
       y2="0"
       x2="1"
       y1="0"
       x1="0"
       spreadMethod="pad"
       gradientTransform="matrix(0,-29.375,35.079863,0,16,31.0003)"
       gradientUnits="userSpaceOnUse"
       id="linearGradient8816"
       xlink:href="#linearGradient4835"
       inkscape:collect="always" />
  </defs>
  <sodipodi:namedview
     id="base"
     pagecolor="#ffffff"
     bordercolor="#666666"
     borderopacity="1.0"
     inkscape:pageopacity="0.0"
     inkscape:pageshadow="2"
     inkscape:zoom="11.197802"
     inkscape:cx="16"
     inkscape:cy="16"
     inkscape:current-layer="layer1"
     showgrid="true"
     inkscape:grid-bbox="true"
     inkscape:document-units="px"
     inkscape:window-width="1600"
     inkscape:window-height="838"
     inkscape:window-x="-8"
     inkscape:window-y="-8"
     inkscape:window-maximized="1" />
  <metadata
     id="metadata8670">
    <rdf:RDF>
      <cc:Work
         rdf:about="">
        <dc:format>image/svg+xml</dc:format>
        <dc:type
           rdf:resource="http://purl.org/dc/dcmitype/StillImage" />
        <dc:title></dc:title>
      </cc:Work>
    </rdf:RDF>
  </metadata>
  <g
     id="layer1"
     inkscape:label="Layer 1"
     inkscape:groupmode="layer">
    <path
       id="path4843"
       style="fill:url(#linearGradient8816);stroke:none"
       d="M 5.3528885,1.6250001 C 2.959994,1.6250001 1,3.2662501 1,5.2725001 l 0,0 L 1,27.355 C 1,29.36 2.959994,31 5.3528885,31 l 0,0 21.2912375,0 C 29.038513,31 31,29.36 31,27.355 l 0,0 0,-22.0824999 c 0,-2.00625 -1.961487,-3.6475 -4.355874,-3.6475 l 0,0 -21.2912375,0 z M 4.6274071,25.3525 l 0,-18.0774999 c 0,-1.33625 1.3061651,-2.4325 2.9034184,-2.4325 l 0,0 16.9383495,0 c 1.597253,0 2.900432,1.09625 2.900432,2.4325 l 0,0 0,18.0774999 c 0,1.33625 -1.303179,2.43 -2.900432,2.43 l 0,0 -16.9383495,0 c -1.5972533,0 -2.9034184,-1.09375 -2.9034184,-2.43"
       inkscape:connector-curvature="0" />
    <path
       id="path4865"
       style="fill:url(#linearGradient4857);stroke:none"
       d="m 8.8041499,14.6925 c -0.8001194,0 -1.4524556,0.5475 -1.4524556,1.215 l 0,0 0,1.115 c 0,0.66875 0.6523362,1.215 1.4524556,1.215 l 0,0 14.3931931,0 c 0.798627,0 1.450963,-0.54625 1.450963,-1.215 l 0,0 0,-1.115 c 0,-0.6675 -0.652336,-1.215 -1.450963,-1.215 l 0,0 -14.3931931,0 z"
       inkscape:connector-curvature="0" />
    <path
       id="path4887"
       style="fill:url(#linearGradient4879);stroke:none"
       d="m 8.8041499,9.22375 c -0.8001194,0 -1.4524556,0.54625 -1.4524556,1.215 l 0,0 0,1.11375 c 0,0.66875 0.6523362,1.21625 1.4524556,1.21625 l 0,0 14.3931931,0 c 0.798627,0 1.450963,-0.5475 1.450963,-1.21625 l 0,0 0,-1.11375 c 0,-0.66875 -0.652336,-1.215 -1.450963,-1.215 l 0,0 -14.3931931,0 z"
       inkscape:connector-curvature="0" />
    <path
       id="path4909"
       style="fill:url(#linearGradient4901);stroke:none"
       d="m 8.8041499,20.1625 c -0.8001194,0 -1.4524556,0.5475 -1.4524556,1.215 l 0,0 0,1.11375 c 0,0.67 0.6523362,1.21625 1.4524556,1.21625 l 0,0 14.3931931,0 c 0.798627,0 1.450963,-0.54625 1.450963,-1.21625 l 0,0 0,-1.11375 c 0,-0.6675 -0.652336,-1.215 -1.450963,-1.215 l 0,0 -14.3931931,0 z"
       inkscape:connector-curvature="0" />
  </g>
</svg>
