<?xml version="1.0" encoding="UTF-8" standalone="no"?>
<!-- Created with Inkscape (http://www.inkscape.org/) -->

<svg
   xmlns:dc="http://purl.org/dc/elements/1.1/"
   xmlns:cc="http://creativecommons.org/ns#"
   xmlns:rdf="http://www.w3.org/1999/02/22-rdf-syntax-ns#"
   xmlns:svg="http://www.w3.org/2000/svg"
   xmlns="http://www.w3.org/2000/svg"
   xmlns:xlink="http://www.w3.org/1999/xlink"
   xmlns:sodipodi="http://sodipodi.sourceforge.net/DTD/sodipodi-0.dtd"
   xmlns:inkscape="http://www.inkscape.org/namespaces/inkscape"
   width="32px"
   height="32px"
   id="svg4614"
   version="1.1"
   inkscape:version="0.48.2 r9819"
   sodipodi:docname="New document 2">
  <defs
     id="defs4616">
    <linearGradient
       id="linearGradient6111"
       spreadMethod="pad"
       gradientTransform="matrix(0,20.998047,20.998047,0,164.3999,143.18555)"
       gradientUnits="userSpaceOnUse"
       y2="0"
       x2="1"
       y1="0"
       x1="0">
      <stop
         id="stop6113"
         offset="0"
         style="stop-opacity:1;stop-color:#333333" />
      <stop
         id="stop6115"
         offset="0.836365"
         style="stop-opacity:1;stop-color:#666666" />
      <stop
         id="stop6117"
         offset="1"
         style="stop-opacity:1;stop-color:#666666" />
    </linearGradient>
    <linearGradient
       y2="0"
       x2="1"
       y1="0"
       x1="0"
       spreadMethod="pad"
       gradientTransform="matrix(0,-30.001496,30.002925,0,15.999857,31.000642)"
       gradientUnits="userSpaceOnUse"
       id="linearGradient4637"
       xlink:href="#linearGradient6111"
       inkscape:collect="always" />
  </defs>
  <sodipodi:namedview
     id="base"
     pagecolor="#ffffff"
     bordercolor="#666666"
     borderopacity="1.0"
     inkscape:pageopacity="0.0"
     inkscape:pageshadow="2"
     inkscape:zoom="8.7424356"
     inkscape:cx="14.1225"
     inkscape:cy="14.123125"
     inkscape:current-layer="layer1"
     showgrid="true"
     inkscape:grid-bbox="true"
     inkscape:document-units="px"
     inkscape:window-width="1600"
     inkscape:window-height="838"
     inkscape:window-x="-8"
     inkscape:window-y="-8"
     inkscape:window-maximized="1" />
  <metadata
     id="metadata4619">
    <rdf:RDF>
      <cc:Work
         rdf:about="">
        <dc:format>image/svg+xml</dc:format>
        <dc:type
           rdf:resource="http://purl.org/dc/dcmitype/StillImage" />
        <dc:title></dc:title>
      </cc:Work>
    </rdf:RDF>
  </metadata>
  <g
     id="layer1"
     inkscape:label="Layer 1"
     inkscape:groupmode="layer">
    <path
       id="path6119"
       style="fill:url(#linearGradient4637);stroke:none"
       d="M 4.462088,1 C 2.5574395,1 1,2.5587941 1,4.4604943 l 0,0 0,23.0775827 C 1,29.441206 2.5574395,31 4.462088,31 l 0,0 23.074395,0 C 29.44256,31 31,29.441206 31,27.538077 l 0,0 0,-23.0775827 C 31,2.5587941 29.44256,1 27.536483,1 l 0,0 -23.074395,0 z m 1.4402744,16.729533 0,-3.460495 c 0,-0.634376 0.520099,-1.153021 1.1530767,-1.153021 l 0,0 6.0597259,0 0,-6.0580086 c 0,-0.6329474 0.51867,-1.1558792 1.153077,-1.1558792 l 0,0 3.460659,0 c 0.635835,0 1.154505,0.5229318 1.154505,1.1558792 l 0,0 0,6.0580086 6.058297,0 c 0.635836,0 1.153077,0.518645 1.153077,1.153021 l 0,0 0,3.460495 c 0,0.635805 -0.517241,1.15445 -1.153077,1.15445 l 0,0 -6.058297,0 0,6.059438 c 0,0.631518 -0.51867,1.151593 -1.154505,1.151593 l 0,0 -3.460659,0 c -0.634407,0 -1.153077,-0.520075 -1.153077,-1.151593 l 0,0 0,-6.059438 -6.0597259,0 c -0.6329777,0 -1.1530767,-0.518645 -1.1530767,-1.15445"
       inkscape:connector-curvature="0" />
  </g>
</svg>
